<mxfile host="65bd71144e" modified="2020-10-29T07:47:09.495Z" agent="5.0 (X11; Linux x86_64) AppleWebKit/537.36 (KHTML, like Gecko) Code/1.50.1 Chrome/83.0.4103.122 Electron/9.2.1 Safari/537.36" etag="JseK0D2GQID6jxtQyFUA" version="13.6.5" pages="4">
    <diagram id="-NkhaJ5VXu8UQoAX5hMi" name="Page-1">
        <mxGraphModel dx="5070" dy="5301" grid="1" gridSize="10" guides="1" tooltips="1" connect="1" arrows="1" fold="1" page="1" pageScale="1" pageWidth="3300" pageHeight="4681" math="0" shadow="0">
            <root>
                <mxCell id="0"/>
                <mxCell id="1" parent="0"/>
                <mxCell id="6Kyi5qyyRDNc4IYOqq4z-209" value="" style="rounded=0;whiteSpace=wrap;html=1;" parent="1" vertex="1">
                    <mxGeometry x="-1290" y="-470" width="1050" height="600" as="geometry"/>
                </mxCell>
                <mxCell id="6Kyi5qyyRDNc4IYOqq4z-154" value="" style="rounded=0;whiteSpace=wrap;html=1;" parent="1" vertex="1">
                    <mxGeometry x="15" y="-450" width="1245" height="570" as="geometry"/>
                </mxCell>
                <mxCell id="83" value="" style="rounded=0;whiteSpace=wrap;html=1;" parent="1" vertex="1">
                    <mxGeometry x="-440" y="300" width="2020" height="810" as="geometry"/>
                </mxCell>
                <mxCell id="35" value="Data received from the component which open this wizard" style="rounded=0;whiteSpace=wrap;html=1;" parent="1" vertex="1">
                    <mxGeometry x="40" y="482" width="120" height="60" as="geometry"/>
                </mxCell>
                <mxCell id="36" value="" style="endArrow=none;dashed=1;html=1;dashPattern=1 3;strokeWidth=2;exitX=1;exitY=0.5;exitDx=0;exitDy=0;entryX=0;entryY=0.5;entryDx=0;entryDy=0;" parent="1" source="35" target="34" edge="1">
                    <mxGeometry width="50" height="50" relative="1" as="geometry">
                        <mxPoint x="480" y="610" as="sourcePoint"/>
                        <mxPoint x="530" y="560" as="targetPoint"/>
                    </mxGeometry>
                </mxCell>
                <mxCell id="37" value="Initialize Wizard status with dialog Data" style="rounded=0;whiteSpace=wrap;html=1;" parent="1" vertex="1">
                    <mxGeometry x="40" y="559" width="120" height="60" as="geometry"/>
                </mxCell>
                <mxCell id="38" value="" style="endArrow=none;dashed=1;html=1;dashPattern=1 3;strokeWidth=2;exitX=1;exitY=0.5;exitDx=0;exitDy=0;entryX=0;entryY=0.5;entryDx=0;entryDy=0;" parent="1" source="37" target="6" edge="1">
                    <mxGeometry width="50" height="50" relative="1" as="geometry">
                        <mxPoint x="300" y="640" as="sourcePoint"/>
                        <mxPoint x="350" y="590" as="targetPoint"/>
                    </mxGeometry>
                </mxCell>
                <mxCell id="44" value="" style="endArrow=classic;html=1;exitX=0.517;exitY=1;exitDx=0;exitDy=0;exitPerimeter=0;entryX=0.5;entryY=0;entryDx=0;entryDy=0;" parent="1" source="41" target="11" edge="1">
                    <mxGeometry width="50" height="50" relative="1" as="geometry">
                        <mxPoint x="300" y="636.988" as="sourcePoint"/>
                        <mxPoint x="120" y="730" as="targetPoint"/>
                    </mxGeometry>
                </mxCell>
                <mxCell id="46" value="" style="endArrow=classic;html=1;exitX=0.533;exitY=1.038;exitDx=0;exitDy=0;exitPerimeter=0;entryX=0.5;entryY=0;entryDx=0;entryDy=0;" parent="1" source="41" target="19" edge="1">
                    <mxGeometry width="50" height="50" relative="1" as="geometry">
                        <mxPoint x="313.0600000000004" y="646" as="sourcePoint"/>
                        <mxPoint x="300" y="740" as="targetPoint"/>
                    </mxGeometry>
                </mxCell>
                <mxCell id="42" value="" style="endArrow=classic;html=1;exitX=0.489;exitY=1.038;exitDx=0;exitDy=0;exitPerimeter=0;entryX=0.5;entryY=0;entryDx=0;entryDy=0;" parent="1" source="41" target="23" edge="1">
                    <mxGeometry width="50" height="50" relative="1" as="geometry">
                        <mxPoint x="300" y="550" as="sourcePoint"/>
                        <mxPoint x="350" y="500" as="targetPoint"/>
                    </mxGeometry>
                </mxCell>
                <mxCell id="43" value="" style="endArrow=classic;html=1;exitX=0.5;exitY=1.038;exitDx=0;exitDy=0;exitPerimeter=0;entryX=0.5;entryY=0;entryDx=0;entryDy=0;" parent="1" source="41" target="7" edge="1">
                    <mxGeometry width="50" height="50" relative="1" as="geometry">
                        <mxPoint x="298.02000000000044" y="636.988" as="sourcePoint"/>
                        <mxPoint x="-50" y="730" as="targetPoint"/>
                    </mxGeometry>
                </mxCell>
                <mxCell id="45" value="" style="endArrow=classic;html=1;exitX=0.528;exitY=1;exitDx=0;exitDy=0;exitPerimeter=0;entryX=0.5;entryY=0;entryDx=0;entryDy=0;" parent="1" source="41" target="15" edge="1">
                    <mxGeometry width="50" height="50" relative="1" as="geometry">
                        <mxPoint x="303.0600000000004" y="636" as="sourcePoint"/>
                        <mxPoint x="290" y="730" as="targetPoint"/>
                    </mxGeometry>
                </mxCell>
                <mxCell id="47" value="" style="endArrow=none;dashed=1;html=1;dashPattern=1 3;strokeWidth=2;exitX=0;exitY=0.5;exitDx=0;exitDy=0;" parent="1" source="26" target="48" edge="1">
                    <mxGeometry width="50" height="50" relative="1" as="geometry">
                        <mxPoint x="-40" y="630" as="sourcePoint"/>
                        <mxPoint x="10" y="580" as="targetPoint"/>
                    </mxGeometry>
                </mxCell>
                <mxCell id="48" value="Create Button" style="text;html=1;strokeColor=none;fillColor=none;align=center;verticalAlign=middle;whiteSpace=wrap;rounded=0;" parent="1" vertex="1">
                    <mxGeometry x="-430" y="830" width="50" height="20" as="geometry"/>
                </mxCell>
                <mxCell id="7" value="CompositeComponentTab" style="swimlane;fontStyle=1;align=center;verticalAlign=top;childLayout=stackLayout;horizontal=1;startSize=26;horizontalStack=0;resizeParent=1;resizeParentMax=0;resizeLast=0;collapsible=1;marginBottom=0;" parent="1" vertex="1">
                    <mxGeometry x="-140" y="730" width="240" height="112" as="geometry"/>
                </mxCell>
                <mxCell id="8" value="+ uiComponent: UIComponent" style="text;strokeColor=none;fillColor=none;align=left;verticalAlign=top;spacingLeft=4;spacingRight=4;overflow=hidden;rotatable=0;points=[[0,0.5],[1,0.5]];portConstraint=eastwest;" parent="7" vertex="1">
                    <mxGeometry y="26" width="240" height="26" as="geometry"/>
                </mxCell>
                <mxCell id="9" value="" style="line;strokeWidth=1;fillColor=none;align=left;verticalAlign=middle;spacingTop=-1;spacingLeft=3;spacingRight=3;rotatable=0;labelPosition=right;points=[];portConstraint=eastwest;" parent="7" vertex="1">
                    <mxGeometry y="52" width="240" height="8" as="geometry"/>
                </mxCell>
                <mxCell id="10" value="+ insertSubComponent(subComponent)" style="text;strokeColor=none;fillColor=none;align=left;verticalAlign=top;spacingLeft=4;spacingRight=4;overflow=hidden;rotatable=0;points=[[0,0.5],[1,0.5]];portConstraint=eastwest;" parent="7" vertex="1">
                    <mxGeometry y="60" width="240" height="26" as="geometry"/>
                </mxCell>
                <mxCell id="69" value="+ setSubComponentProperties(properties)" style="text;strokeColor=none;fillColor=none;align=left;verticalAlign=top;spacingLeft=4;spacingRight=4;overflow=hidden;rotatable=0;points=[[0,0.5],[1,0.5]];portConstraint=eastwest;" parent="7" vertex="1">
                    <mxGeometry y="86" width="240" height="26" as="geometry"/>
                </mxCell>
                <mxCell id="11" value="CheckStatusTab" style="swimlane;fontStyle=1;align=center;verticalAlign=top;childLayout=stackLayout;horizontal=1;startSize=26;horizontalStack=0;resizeParent=1;resizeParentMax=0;resizeLast=0;collapsible=1;marginBottom=0;" parent="1" vertex="1">
                    <mxGeometry x="110" y="730" width="190" height="138" as="geometry"/>
                </mxCell>
                <mxCell id="12" value="+ uiComponent: UIComponent" style="text;strokeColor=none;fillColor=none;align=left;verticalAlign=top;spacingLeft=4;spacingRight=4;overflow=hidden;rotatable=0;points=[[0,0.5],[1,0.5]];portConstraint=eastwest;" parent="11" vertex="1">
                    <mxGeometry y="26" width="190" height="26" as="geometry"/>
                </mxCell>
                <mxCell id="13" value="" style="line;strokeWidth=1;fillColor=none;align=left;verticalAlign=middle;spacingTop=-1;spacingLeft=3;spacingRight=3;rotatable=0;labelPosition=right;points=[];portConstraint=eastwest;" parent="11" vertex="1">
                    <mxGeometry y="52" width="190" height="8" as="geometry"/>
                </mxCell>
                <mxCell id="14" value="+ saveComponent(uiComponent)" style="text;strokeColor=none;fillColor=none;align=left;verticalAlign=top;spacingLeft=4;spacingRight=4;overflow=hidden;rotatable=0;points=[[0,0.5],[1,0.5]];portConstraint=eastwest;" parent="11" vertex="1">
                    <mxGeometry y="60" width="190" height="26" as="geometry"/>
                </mxCell>
                <mxCell id="58" value="+ next()" style="text;strokeColor=none;fillColor=none;align=left;verticalAlign=top;spacingLeft=4;spacingRight=4;overflow=hidden;rotatable=0;points=[[0,0.5],[1,0.5]];portConstraint=eastwest;" parent="11" vertex="1">
                    <mxGeometry y="86" width="190" height="26" as="geometry"/>
                </mxCell>
                <mxCell id="59" value="+ back()" style="text;strokeColor=none;fillColor=none;align=left;verticalAlign=top;spacingLeft=4;spacingRight=4;overflow=hidden;rotatable=0;points=[[0,0.5],[1,0.5]];portConstraint=eastwest;" parent="11" vertex="1">
                    <mxGeometry y="112" width="190" height="26" as="geometry"/>
                </mxCell>
                <mxCell id="3" value="Wizard" style="swimlane;fontStyle=1;align=center;verticalAlign=top;childLayout=stackLayout;horizontal=1;startSize=26;horizontalStack=0;resizeParent=1;resizeParentMax=0;resizeLast=0;collapsible=1;marginBottom=0;" parent="1" vertex="1">
                    <mxGeometry x="210" y="360" width="190" height="268" as="geometry"/>
                </mxCell>
                <mxCell id="4" value="+ tabs: ArrayList&lt;String&gt;" style="text;strokeColor=none;fillColor=none;align=left;verticalAlign=top;spacingLeft=4;spacingRight=4;overflow=hidden;rotatable=0;points=[[0,0.5],[1,0.5]];portConstraint=eastwest;" parent="3" vertex="1">
                    <mxGeometry y="26" width="190" height="26" as="geometry"/>
                </mxCell>
                <mxCell id="28" value="+ isPipeline: Boolean" style="text;strokeColor=none;fillColor=none;align=left;verticalAlign=top;spacingLeft=4;spacingRight=4;overflow=hidden;rotatable=0;points=[[0,0.5],[1,0.5]];portConstraint=eastwest;" parent="3" vertex="1">
                    <mxGeometry y="52" width="190" height="26" as="geometry"/>
                </mxCell>
                <mxCell id="27" value="+ genere: String" style="text;strokeColor=none;fillColor=none;align=left;verticalAlign=top;spacingLeft=4;spacingRight=4;overflow=hidden;rotatable=0;points=[[0,0.5],[1,0.5]];portConstraint=eastwest;" parent="3" vertex="1">
                    <mxGeometry y="78" width="190" height="26" as="geometry"/>
                </mxCell>
                <mxCell id="30" value="+ type: String" style="text;strokeColor=none;fillColor=none;align=left;verticalAlign=top;spacingLeft=4;spacingRight=4;overflow=hidden;rotatable=0;points=[[0,0.5],[1,0.5]];portConstraint=eastwest;" parent="3" vertex="1">
                    <mxGeometry y="104" width="190" height="26" as="geometry"/>
                </mxCell>
                <mxCell id="29" value="+ category: String" style="text;strokeColor=none;fillColor=none;align=left;verticalAlign=top;spacingLeft=4;spacingRight=4;overflow=hidden;rotatable=0;points=[[0,0.5],[1,0.5]];portConstraint=eastwest;" parent="3" vertex="1">
                    <mxGeometry y="130" width="190" height="26" as="geometry"/>
                </mxCell>
                <mxCell id="31" value="+ uiComponent: UIComponent" style="text;strokeColor=none;fillColor=none;align=left;verticalAlign=top;spacingLeft=4;spacingRight=4;overflow=hidden;rotatable=0;points=[[0,0.5],[1,0.5]];portConstraint=eastwest;" parent="3" vertex="1">
                    <mxGeometry y="156" width="190" height="26" as="geometry"/>
                </mxCell>
                <mxCell id="34" value="+ dialogData" style="text;strokeColor=#82b366;fillColor=#d5e8d4;align=left;verticalAlign=top;spacingLeft=4;spacingRight=4;overflow=hidden;rotatable=0;points=[[0,0.5],[1,0.5]];portConstraint=eastwest;" parent="3" vertex="1">
                    <mxGeometry y="182" width="190" height="26" as="geometry"/>
                </mxCell>
                <mxCell id="5" value="" style="line;strokeWidth=1;fillColor=none;align=left;verticalAlign=middle;spacingTop=-1;spacingLeft=3;spacingRight=3;rotatable=0;labelPosition=right;points=[];portConstraint=eastwest;" parent="3" vertex="1">
                    <mxGeometry y="208" width="190" height="8" as="geometry"/>
                </mxCell>
                <mxCell id="6" value="+ initialization()" style="text;strokeColor=none;fillColor=none;align=left;verticalAlign=top;spacingLeft=4;spacingRight=4;overflow=hidden;rotatable=0;points=[[0,0.5],[1,0.5]];portConstraint=eastwest;" parent="3" vertex="1">
                    <mxGeometry y="216" width="190" height="26" as="geometry"/>
                </mxCell>
                <mxCell id="41" value="+ inserComponent(uiComponent)" style="text;strokeColor=#6c8ebf;fillColor=#dae8fc;align=left;verticalAlign=top;spacingLeft=4;spacingRight=4;overflow=hidden;rotatable=0;points=[[0,0.5],[1,0.5]];portConstraint=eastwest;" parent="3" vertex="1">
                    <mxGeometry y="242" width="190" height="26" as="geometry"/>
                </mxCell>
                <mxCell id="51" value="Insert&lt;br&gt;Button" style="text;html=1;strokeColor=none;fillColor=none;align=center;verticalAlign=middle;whiteSpace=wrap;rounded=0;" parent="1" vertex="1">
                    <mxGeometry x="-200" y="840" width="50" height="20" as="geometry"/>
                </mxCell>
                <mxCell id="52" value="" style="endArrow=none;dashed=1;html=1;dashPattern=1 3;strokeWidth=2;exitX=1;exitY=0.5;exitDx=0;exitDy=0;entryX=0;entryY=0.5;entryDx=0;entryDy=0;" parent="1" source="51" target="10" edge="1">
                    <mxGeometry width="50" height="50" relative="1" as="geometry">
                        <mxPoint x="20" y="630" as="sourcePoint"/>
                        <mxPoint x="70" y="580" as="targetPoint"/>
                    </mxGeometry>
                </mxCell>
                <mxCell id="53" value="" style="endArrow=none;dashed=1;html=1;dashPattern=1 3;strokeWidth=2;exitX=0.5;exitY=0;exitDx=0;exitDy=0;" parent="1" source="54" edge="1">
                    <mxGeometry width="50" height="50" relative="1" as="geometry">
                        <mxPoint x="100" y="840" as="sourcePoint"/>
                        <mxPoint x="110" y="803" as="targetPoint"/>
                    </mxGeometry>
                </mxCell>
                <mxCell id="54" value="Finish&lt;br&gt;Button" style="text;html=1;strokeColor=none;fillColor=none;align=center;verticalAlign=middle;whiteSpace=wrap;rounded=0;" parent="1" vertex="1">
                    <mxGeometry x="50" y="930" width="50" height="20" as="geometry"/>
                </mxCell>
                <mxCell id="55" value="" style="endArrow=none;dashed=1;html=1;dashPattern=1 3;strokeWidth=2;exitX=0;exitY=0;exitDx=0;exitDy=0;" parent="1" source="57" edge="1">
                    <mxGeometry width="50" height="50" relative="1" as="geometry">
                        <mxPoint x="110" y="850" as="sourcePoint"/>
                        <mxPoint x="110" y="800" as="targetPoint"/>
                    </mxGeometry>
                </mxCell>
                <mxCell id="57" value="save component into internal representation storage" style="rounded=0;whiteSpace=wrap;html=1;" parent="1" vertex="1">
                    <mxGeometry x="100" y="930" width="120" height="60" as="geometry"/>
                </mxCell>
                <mxCell id="15" value="BindServiceTab" style="swimlane;fontStyle=1;align=center;verticalAlign=top;childLayout=stackLayout;horizontal=1;startSize=26;horizontalStack=0;resizeParent=1;resizeParentMax=0;resizeLast=0;collapsible=1;marginBottom=0;" parent="1" vertex="1">
                    <mxGeometry x="310" y="730" width="200" height="190" as="geometry"/>
                </mxCell>
                <mxCell id="16" value="+ uiComponent: UIComponent" style="text;strokeColor=none;fillColor=none;align=left;verticalAlign=top;spacingLeft=4;spacingRight=4;overflow=hidden;rotatable=0;points=[[0,0.5],[1,0.5]];portConstraint=eastwest;" parent="15" vertex="1">
                    <mxGeometry y="26" width="200" height="26" as="geometry"/>
                </mxCell>
                <mxCell id="60" value="+ serviceCandidates: Array&lt;String&gt;" style="text;strokeColor=none;fillColor=none;align=left;verticalAlign=top;spacingLeft=4;spacingRight=4;overflow=hidden;rotatable=0;points=[[0,0.5],[1,0.5]];portConstraint=eastwest;" parent="15" vertex="1">
                    <mxGeometry y="52" width="200" height="26" as="geometry"/>
                </mxCell>
                <mxCell id="61" value="+ argumentOptions: Array&lt;String&gt;" style="text;strokeColor=none;fillColor=none;align=left;verticalAlign=top;spacingLeft=4;spacingRight=4;overflow=hidden;rotatable=0;points=[[0,0.5],[1,0.5]];portConstraint=eastwest;" parent="15" vertex="1">
                    <mxGeometry y="78" width="200" height="26" as="geometry"/>
                </mxCell>
                <mxCell id="17" value="" style="line;strokeWidth=1;fillColor=none;align=left;verticalAlign=middle;spacingTop=-1;spacingLeft=3;spacingRight=3;rotatable=0;labelPosition=right;points=[];portConstraint=eastwest;" parent="15" vertex="1">
                    <mxGeometry y="104" width="200" height="8" as="geometry"/>
                </mxCell>
                <mxCell id="18" value="+ queryService(uiComponent)" style="text;strokeColor=#d6b656;fillColor=#fff2cc;align=left;verticalAlign=top;spacingLeft=4;spacingRight=4;overflow=hidden;rotatable=0;points=[[0,0.5],[1,0.5]];portConstraint=eastwest;" parent="15" vertex="1">
                    <mxGeometry y="112" width="200" height="26" as="geometry"/>
                </mxCell>
                <mxCell id="62" value="+ next()" style="text;strokeColor=none;fillColor=none;align=left;verticalAlign=top;spacingLeft=4;spacingRight=4;overflow=hidden;rotatable=0;points=[[0,0.5],[1,0.5]];portConstraint=eastwest;" parent="15" vertex="1">
                    <mxGeometry y="138" width="200" height="26" as="geometry"/>
                </mxCell>
                <mxCell id="63" value="+ back()" style="text;strokeColor=none;fillColor=none;align=left;verticalAlign=top;spacingLeft=4;spacingRight=4;overflow=hidden;rotatable=0;points=[[0,0.5],[1,0.5]];portConstraint=eastwest;" parent="15" vertex="1">
                    <mxGeometry y="164" width="200" height="26" as="geometry"/>
                </mxCell>
                <mxCell id="23" value="BuildComponentTab" style="swimlane;fontStyle=1;align=center;verticalAlign=top;childLayout=stackLayout;horizontal=1;startSize=26;horizontalStack=0;resizeParent=1;resizeParentMax=0;resizeLast=0;collapsible=1;marginBottom=0;" parent="1" vertex="1">
                    <mxGeometry x="-380" y="730" width="220" height="86" as="geometry"/>
                </mxCell>
                <mxCell id="24" value="+ uiComponent: UIComponent" style="text;strokeColor=none;fillColor=none;align=left;verticalAlign=top;spacingLeft=4;spacingRight=4;overflow=hidden;rotatable=0;points=[[0,0.5],[1,0.5]];portConstraint=eastwest;" parent="23" vertex="1">
                    <mxGeometry y="26" width="220" height="26" as="geometry"/>
                </mxCell>
                <mxCell id="25" value="" style="line;strokeWidth=1;fillColor=none;align=left;verticalAlign=middle;spacingTop=-1;spacingLeft=3;spacingRight=3;rotatable=0;labelPosition=right;points=[];portConstraint=eastwest;" parent="23" vertex="1">
                    <mxGeometry y="52" width="220" height="8" as="geometry"/>
                </mxCell>
                <mxCell id="26" value="+ setComponentProperties(properties)" style="text;strokeColor=none;fillColor=none;align=left;verticalAlign=top;spacingLeft=4;spacingRight=4;overflow=hidden;rotatable=0;points=[[0,0.5],[1,0.5]];portConstraint=eastwest;" parent="23" vertex="1">
                    <mxGeometry y="60" width="220" height="26" as="geometry"/>
                </mxCell>
                <mxCell id="70" value="" style="endArrow=none;dashed=1;html=1;dashPattern=1 3;strokeWidth=2;entryX=0;entryY=0.5;entryDx=0;entryDy=0;exitX=0.5;exitY=0;exitDx=0;exitDy=0;" parent="1" source="71" target="18" edge="1">
                    <mxGeometry width="50" height="50" relative="1" as="geometry">
                        <mxPoint x="290" y="920" as="sourcePoint"/>
                        <mxPoint x="120" y="813" as="targetPoint"/>
                    </mxGeometry>
                </mxCell>
                <mxCell id="71" value="Query Service Button" style="text;html=1;strokeColor=none;fillColor=none;align=center;verticalAlign=middle;whiteSpace=wrap;rounded=0;" parent="1" vertex="1">
                    <mxGeometry x="260" y="930" width="50" height="20" as="geometry"/>
                </mxCell>
                <mxCell id="72" value="&lt;font style=&quot;font-size: 21px&quot;&gt;Internal Representation&lt;br&gt;(PageUICDL)&lt;br&gt;&lt;/font&gt;" style="rounded=0;whiteSpace=wrap;html=1;fillColor=#dae8fc;strokeColor=#6c8ebf;" parent="1" vertex="1">
                    <mxGeometry x="810" y="970" width="230" height="114" as="geometry"/>
                </mxCell>
                <mxCell id="73" value="&lt;span style=&quot;font-size: 21px&quot;&gt;External Representation&lt;br&gt;(MxGraph Vertex,Edge)&lt;br&gt;&lt;/span&gt;" style="rounded=0;whiteSpace=wrap;html=1;fillColor=#f8cecc;strokeColor=#b85450;" parent="1" vertex="1">
                    <mxGeometry x="1060" y="970" width="230" height="114" as="geometry"/>
                </mxCell>
                <mxCell id="74" value="&lt;span style=&quot;font-size: 21px&quot;&gt;&amp;nbsp;Wizard Pipeline Tasks&lt;br&gt;&lt;/span&gt;" style="rounded=0;whiteSpace=wrap;html=1;fillColor=#d5e8d4;strokeColor=#82b366;" parent="1" vertex="1">
                    <mxGeometry x="1310" y="970" width="230" height="114" as="geometry"/>
                </mxCell>
                <mxCell id="75" value="&lt;font style=&quot;font-size: 20px&quot;&gt;Dispatcher&lt;/font&gt;" style="rounded=0;whiteSpace=wrap;html=1;" parent="1" vertex="1">
                    <mxGeometry x="840" y="690" width="120" height="60" as="geometry"/>
                </mxCell>
                <mxCell id="76" value="&lt;font style=&quot;font-size: 20px&quot;&gt;Store&lt;/font&gt;" style="rounded=0;whiteSpace=wrap;html=1;" parent="1" vertex="1">
                    <mxGeometry x="1115" y="790" width="120" height="60" as="geometry"/>
                </mxCell>
                <mxCell id="77" value="" style="endArrow=classic;html=1;exitX=0.5;exitY=1;exitDx=0;exitDy=0;entryX=0.5;entryY=0;entryDx=0;entryDy=0;" parent="1" source="76" target="72" edge="1">
                    <mxGeometry width="50" height="50" relative="1" as="geometry">
                        <mxPoint x="1020" y="920" as="sourcePoint"/>
                        <mxPoint x="1070" y="870" as="targetPoint"/>
                    </mxGeometry>
                </mxCell>
                <mxCell id="78" value="" style="endArrow=classic;html=1;exitX=0.5;exitY=1;exitDx=0;exitDy=0;" parent="1" source="76" target="73" edge="1">
                    <mxGeometry width="50" height="50" relative="1" as="geometry">
                        <mxPoint x="1185" y="860" as="sourcePoint"/>
                        <mxPoint x="935" y="980" as="targetPoint"/>
                    </mxGeometry>
                </mxCell>
                <mxCell id="79" value="" style="endArrow=classic;html=1;exitX=0.5;exitY=1;exitDx=0;exitDy=0;entryX=0.5;entryY=0;entryDx=0;entryDy=0;" parent="1" source="76" target="74" edge="1">
                    <mxGeometry width="50" height="50" relative="1" as="geometry">
                        <mxPoint x="1185" y="860" as="sourcePoint"/>
                        <mxPoint x="1185" y="980" as="targetPoint"/>
                    </mxGeometry>
                </mxCell>
                <mxCell id="80" value="" style="endArrow=classic;html=1;exitX=1;exitY=0.5;exitDx=0;exitDy=0;dashed=1;entryX=0;entryY=0.75;entryDx=0;entryDy=0;" parent="1" source="22" target="75" edge="1">
                    <mxGeometry width="50" height="50" relative="1" as="geometry">
                        <mxPoint x="860" y="910" as="sourcePoint"/>
                        <mxPoint x="838" y="720" as="targetPoint"/>
                    </mxGeometry>
                </mxCell>
                <mxCell id="81" value="" style="endArrow=classic;html=1;entryX=0.5;entryY=0;entryDx=0;entryDy=0;exitX=1;exitY=0.5;exitDx=0;exitDy=0;" parent="1" source="75" target="76" edge="1">
                    <mxGeometry width="50" height="50" relative="1" as="geometry">
                        <mxPoint x="700" y="740" as="sourcePoint"/>
                        <mxPoint x="750" y="690" as="targetPoint"/>
                    </mxGeometry>
                </mxCell>
                <mxCell id="82" value="" style="endArrow=classic;html=1;exitX=1;exitY=0.5;exitDx=0;exitDy=0;entryX=0;entryY=0.5;entryDx=0;entryDy=0;dashed=1;" parent="1" source="41" target="75" edge="1">
                    <mxGeometry width="50" height="50" relative="1" as="geometry">
                        <mxPoint x="750" y="839" as="sourcePoint"/>
                        <mxPoint x="847.96" y="724" as="targetPoint"/>
                    </mxGeometry>
                </mxCell>
                <mxCell id="84" value="action: insetTable, insertForm, insertBreadCrumb..." style="text;html=1;strokeColor=none;fillColor=none;align=center;verticalAlign=middle;whiteSpace=wrap;rounded=0;" parent="1" vertex="1">
                    <mxGeometry x="500" y="619" width="280" height="20" as="geometry"/>
                </mxCell>
                <mxCell id="85" value="action: insert wizard task" style="text;html=1;strokeColor=none;fillColor=none;align=center;verticalAlign=middle;whiteSpace=wrap;rounded=0;" parent="1" vertex="1">
                    <mxGeometry x="750" y="810" width="150" height="20" as="geometry"/>
                </mxCell>
                <mxCell id="102" value="UIComponent" style="swimlane;fontStyle=1;align=center;verticalAlign=top;childLayout=stackLayout;horizontal=1;startSize=26;horizontalStack=0;resizeParent=1;resizeParentMax=0;resizeLast=0;collapsible=1;marginBottom=0;" parent="1" vertex="1">
                    <mxGeometry x="290" y="-420" width="270" height="236" as="geometry"/>
                </mxCell>
                <mxCell id="103" value="+ id: String" style="text;strokeColor=none;fillColor=none;align=left;verticalAlign=top;spacingLeft=4;spacingRight=4;overflow=hidden;rotatable=0;points=[[0,0.5],[1,0.5]];portConstraint=eastwest;" parent="102" vertex="1">
                    <mxGeometry y="26" width="270" height="24" as="geometry"/>
                </mxCell>
                <mxCell id="106" value="+ selector: String" style="text;strokeColor=none;fillColor=none;align=left;verticalAlign=top;spacingLeft=4;spacingRight=4;overflow=hidden;rotatable=0;points=[[0,0.5],[1,0.5]];portConstraint=eastwest;" parent="102" vertex="1">
                    <mxGeometry y="50" width="270" height="26" as="geometry"/>
                </mxCell>
                <mxCell id="109" value="+ category: String" style="text;strokeColor=none;fillColor=none;align=left;verticalAlign=top;spacingLeft=4;spacingRight=4;overflow=hidden;rotatable=0;points=[[0,0.5],[1,0.5]];portConstraint=eastwest;" parent="102" vertex="1">
                    <mxGeometry y="76" width="270" height="26" as="geometry"/>
                </mxCell>
                <mxCell id="111" value="+ style: Map&lt;String,String&gt;" style="text;strokeColor=none;fillColor=none;align=left;verticalAlign=top;spacingLeft=4;spacingRight=4;overflow=hidden;rotatable=0;points=[[0,0.5],[1,0.5]];portConstraint=eastwest;" parent="102" vertex="1">
                    <mxGeometry y="102" width="270" height="26" as="geometry"/>
                </mxCell>
                <mxCell id="112" value="+ type: String" style="text;strokeColor=none;fillColor=none;align=left;verticalAlign=top;spacingLeft=4;spacingRight=4;overflow=hidden;rotatable=0;points=[[0,0.5],[1,0.5]];portConstraint=eastwest;" parent="102" vertex="1">
                    <mxGeometry y="128" width="270" height="26" as="geometry"/>
                </mxCell>
                <mxCell id="110" value="+ name: String" style="text;strokeColor=none;fillColor=none;align=left;verticalAlign=top;spacingLeft=4;spacingRight=4;overflow=hidden;rotatable=0;points=[[0,0.5],[1,0.5]];portConstraint=eastwest;" parent="102" vertex="1">
                    <mxGeometry y="154" width="270" height="26" as="geometry"/>
                </mxCell>
                <mxCell id="108" value="+ geometry: Geometry" style="text;strokeColor=none;fillColor=none;align=left;verticalAlign=top;spacingLeft=4;spacingRight=4;overflow=hidden;rotatable=0;points=[[0,0.5],[1,0.5]];portConstraint=eastwest;" parent="102" vertex="1">
                    <mxGeometry y="180" width="270" height="24" as="geometry"/>
                </mxCell>
                <mxCell id="107" value="+ serviceComponent: ServiceComponentModel" style="text;strokeColor=none;fillColor=none;align=left;verticalAlign=top;spacingLeft=4;spacingRight=4;overflow=hidden;rotatable=0;points=[[0,0.5],[1,0.5]];portConstraint=eastwest;" parent="102" vertex="1">
                    <mxGeometry y="204" width="270" height="24" as="geometry"/>
                </mxCell>
                <mxCell id="104" value="" style="line;strokeWidth=1;fillColor=none;align=left;verticalAlign=middle;spacingTop=-1;spacingLeft=3;spacingRight=3;rotatable=0;labelPosition=right;points=[];portConstraint=eastwest;" parent="102" vertex="1">
                    <mxGeometry y="228" width="270" height="8" as="geometry"/>
                </mxCell>
                <mxCell id="118" value="" style="endArrow=open;endFill=1;endSize=12;html=1;exitX=1;exitY=0.5;exitDx=0;exitDy=0;entryX=0.5;entryY=0;entryDx=0;entryDy=0;" parent="1" source="108" target="113" edge="1">
                    <mxGeometry width="160" relative="1" as="geometry">
                        <mxPoint x="230" y="-110" as="sourcePoint"/>
                        <mxPoint x="390" y="-110" as="targetPoint"/>
                        <Array as="points">
                            <mxPoint x="820" y="-228"/>
                        </Array>
                    </mxGeometry>
                </mxCell>
                <mxCell id="123" value="CompositeComponent" style="swimlane;fontStyle=1;align=center;verticalAlign=top;childLayout=stackLayout;horizontal=1;startSize=26;horizontalStack=0;resizeParent=1;resizeParentMax=0;resizeLast=0;collapsible=1;marginBottom=0;" parent="1" vertex="1">
                    <mxGeometry x="450" y="-86" width="240" height="86" as="geometry"/>
                </mxCell>
                <mxCell id="124" value="+ componentList: ArrayList&lt;UIComponent&gt;" style="text;strokeColor=none;fillColor=none;align=left;verticalAlign=top;spacingLeft=4;spacingRight=4;overflow=hidden;rotatable=0;points=[[0,0.5],[1,0.5]];portConstraint=eastwest;" parent="123" vertex="1">
                    <mxGeometry y="26" width="240" height="26" as="geometry"/>
                </mxCell>
                <mxCell id="125" value="" style="line;strokeWidth=1;fillColor=none;align=left;verticalAlign=middle;spacingTop=-1;spacingLeft=3;spacingRight=3;rotatable=0;labelPosition=right;points=[];portConstraint=eastwest;" parent="123" vertex="1">
                    <mxGeometry y="52" width="240" height="8" as="geometry"/>
                </mxCell>
                <mxCell id="126" value="+ method(type): type" style="text;strokeColor=none;fillColor=none;align=left;verticalAlign=top;spacingLeft=4;spacingRight=4;overflow=hidden;rotatable=0;points=[[0,0.5],[1,0.5]];portConstraint=eastwest;" parent="123" vertex="1">
                    <mxGeometry y="60" width="240" height="26" as="geometry"/>
                </mxCell>
                <mxCell id="127" value="" style="endArrow=diamondThin;endFill=1;endSize=24;html=1;entryX=1;entryY=0.5;entryDx=0;entryDy=0;" parent="1" target="124" edge="1">
                    <mxGeometry width="160" relative="1" as="geometry">
                        <mxPoint x="560" y="-405" as="sourcePoint"/>
                        <mxPoint x="420" y="-110" as="targetPoint"/>
                        <Array as="points">
                            <mxPoint x="720" y="-405"/>
                            <mxPoint x="720" y="-47"/>
                        </Array>
                    </mxGeometry>
                </mxCell>
                <mxCell id="128" value="Extends" style="endArrow=block;endSize=16;endFill=0;html=1;exitX=0.5;exitY=0;exitDx=0;exitDy=0;" parent="1" source="123" target="104" edge="1">
                    <mxGeometry x="0.0206" width="160" relative="1" as="geometry">
                        <mxPoint x="260" y="-110" as="sourcePoint"/>
                        <mxPoint x="420" y="-180" as="targetPoint"/>
                        <Array as="points">
                            <mxPoint x="570" y="-130"/>
                            <mxPoint x="425" y="-130"/>
                        </Array>
                        <mxPoint as="offset"/>
                    </mxGeometry>
                </mxCell>
                <mxCell id="129" value="Extends" style="endArrow=block;endSize=16;endFill=0;html=1;exitX=0.5;exitY=0;exitDx=0;exitDy=0;entryX=0.5;entryY=1;entryDx=0;entryDy=0;" parent="1" source="119" target="102" edge="1">
                    <mxGeometry width="160" relative="1" as="geometry">
                        <mxPoint x="260" y="-110" as="sourcePoint"/>
                        <mxPoint x="420" y="-110" as="targetPoint"/>
                        <Array as="points">
                            <mxPoint x="300" y="-130"/>
                            <mxPoint x="425" y="-130"/>
                        </Array>
                    </mxGeometry>
                </mxCell>
                <mxCell id="119" value="BasicComponent" style="swimlane;fontStyle=1;align=center;verticalAlign=top;childLayout=stackLayout;horizontal=1;startSize=26;horizontalStack=0;resizeParent=1;resizeParentMax=0;resizeLast=0;collapsible=1;marginBottom=0;" parent="1" vertex="1">
                    <mxGeometry x="220" y="-90" width="160" height="34" as="geometry"/>
                </mxCell>
                <mxCell id="130" value="LayoutComponent" style="swimlane;fontStyle=1;align=center;verticalAlign=top;childLayout=stackLayout;horizontal=1;startSize=26;horizontalStack=0;resizeParent=1;resizeParentMax=0;resizeLast=0;collapsible=1;marginBottom=0;" parent="1" vertex="1">
                    <mxGeometry x="360" y="50" width="160" height="34" as="geometry"/>
                </mxCell>
                <mxCell id="134" value="Extends" style="endArrow=block;endSize=16;endFill=0;html=1;exitX=0.5;exitY=0;exitDx=0;exitDy=0;entryX=0.488;entryY=0.962;entryDx=0;entryDy=0;entryPerimeter=0;" parent="1" source="130" target="126" edge="1">
                    <mxGeometry width="160" relative="1" as="geometry">
                        <mxPoint x="310" y="-80" as="sourcePoint"/>
                        <mxPoint x="435" y="-174" as="targetPoint"/>
                        <Array as="points">
                            <mxPoint x="440" y="30"/>
                            <mxPoint x="567" y="30"/>
                        </Array>
                    </mxGeometry>
                </mxCell>
                <mxCell id="136" value="" style="endArrow=open;endFill=1;endSize=12;html=1;exitX=0.5;exitY=1;exitDx=0;exitDy=0;entryX=0;entryY=0.5;entryDx=0;entryDy=0;" parent="1" source="86" target="130" edge="1">
                    <mxGeometry width="160" relative="1" as="geometry">
                        <mxPoint x="390" y="-210" as="sourcePoint"/>
                        <mxPoint x="550" y="-210" as="targetPoint"/>
                        <Array as="points">
                            <mxPoint x="135" y="67"/>
                        </Array>
                    </mxGeometry>
                </mxCell>
                <mxCell id="113" value="Geometry" style="swimlane;fontStyle=0;childLayout=stackLayout;horizontal=1;startSize=26;fillColor=none;horizontalStack=0;resizeParent=1;resizeParentMax=0;resizeLast=0;collapsible=1;marginBottom=0;" parent="1" vertex="1">
                    <mxGeometry x="750" y="-160" width="140" height="130" as="geometry"/>
                </mxCell>
                <mxCell id="114" value="+ x : String" style="text;strokeColor=none;fillColor=none;align=left;verticalAlign=top;spacingLeft=4;spacingRight=4;overflow=hidden;rotatable=0;points=[[0,0.5],[1,0.5]];portConstraint=eastwest;" parent="113" vertex="1">
                    <mxGeometry y="26" width="140" height="26" as="geometry"/>
                </mxCell>
                <mxCell id="117" value="+ y : String" style="text;strokeColor=none;fillColor=none;align=left;verticalAlign=top;spacingLeft=4;spacingRight=4;overflow=hidden;rotatable=0;points=[[0,0.5],[1,0.5]];portConstraint=eastwest;" parent="113" vertex="1">
                    <mxGeometry y="52" width="140" height="26" as="geometry"/>
                </mxCell>
                <mxCell id="115" value="+ width: String" style="text;strokeColor=none;fillColor=none;align=left;verticalAlign=top;spacingLeft=4;spacingRight=4;overflow=hidden;rotatable=0;points=[[0,0.5],[1,0.5]];portConstraint=eastwest;" parent="113" vertex="1">
                    <mxGeometry y="78" width="140" height="26" as="geometry"/>
                </mxCell>
                <mxCell id="116" value="+ height: String" style="text;strokeColor=none;fillColor=none;align=left;verticalAlign=top;spacingLeft=4;spacingRight=4;overflow=hidden;rotatable=0;points=[[0,0.5],[1,0.5]];portConstraint=eastwest;" parent="113" vertex="1">
                    <mxGeometry y="104" width="140" height="26" as="geometry"/>
                </mxCell>
                <mxCell id="137" value="ServiceComponentModel" style="swimlane;fontStyle=1;align=center;verticalAlign=top;childLayout=stackLayout;horizontal=1;startSize=26;horizontalStack=0;resizeParent=1;resizeParentMax=0;resizeLast=0;collapsible=1;marginBottom=0;" parent="1" vertex="1">
                    <mxGeometry x="910" y="-160" width="160" height="156" as="geometry"/>
                </mxCell>
                <mxCell id="138" value="+ name: String" style="text;strokeColor=none;fillColor=none;align=left;verticalAlign=top;spacingLeft=4;spacingRight=4;overflow=hidden;rotatable=0;points=[[0,0.5],[1,0.5]];portConstraint=eastwest;" parent="137" vertex="1">
                    <mxGeometry y="26" width="160" height="26" as="geometry"/>
                </mxCell>
                <mxCell id="6Kyi5qyyRDNc4IYOqq4z-143" value="+ preference: int" style="text;strokeColor=none;fillColor=none;align=left;verticalAlign=top;spacingLeft=4;spacingRight=4;overflow=hidden;rotatable=0;points=[[0,0.5],[1,0.5]];portConstraint=eastwest;" parent="137" vertex="1">
                    <mxGeometry y="52" width="160" height="26" as="geometry"/>
                </mxCell>
                <mxCell id="6Kyi5qyyRDNc4IYOqq4z-140" value="+ serviceType: ServiceType" style="text;strokeColor=none;fillColor=none;align=left;verticalAlign=top;spacingLeft=4;spacingRight=4;overflow=hidden;rotatable=0;points=[[0,0.5],[1,0.5]];portConstraint=eastwest;" parent="137" vertex="1">
                    <mxGeometry y="78" width="160" height="26" as="geometry"/>
                </mxCell>
                <mxCell id="6Kyi5qyyRDNc4IYOqq4z-142" value="+ code: String" style="text;strokeColor=none;fillColor=none;align=left;verticalAlign=top;spacingLeft=4;spacingRight=4;overflow=hidden;rotatable=0;points=[[0,0.5],[1,0.5]];portConstraint=eastwest;" parent="137" vertex="1">
                    <mxGeometry y="104" width="160" height="26" as="geometry"/>
                </mxCell>
                <mxCell id="6Kyi5qyyRDNc4IYOqq4z-141" value="+ argumentType" style="text;strokeColor=none;fillColor=none;align=left;verticalAlign=top;spacingLeft=4;spacingRight=4;overflow=hidden;rotatable=0;points=[[0,0.5],[1,0.5]];portConstraint=eastwest;" parent="137" vertex="1">
                    <mxGeometry y="130" width="160" height="26" as="geometry"/>
                </mxCell>
                <mxCell id="6Kyi5qyyRDNc4IYOqq4z-152" value="" style="endArrow=open;endFill=1;endSize=12;html=1;exitX=1;exitY=0.5;exitDx=0;exitDy=0;entryX=0.5;entryY=0;entryDx=0;entryDy=0;" parent="1" source="6Kyi5qyyRDNc4IYOqq4z-140" target="6Kyi5qyyRDNc4IYOqq4z-148" edge="1">
                    <mxGeometry width="160" relative="1" as="geometry">
                        <mxPoint x="940" y="-150" as="sourcePoint"/>
                        <mxPoint x="1100" y="-150" as="targetPoint"/>
                        <Array as="points">
                            <mxPoint x="1165" y="-69"/>
                        </Array>
                    </mxGeometry>
                </mxCell>
                <mxCell id="6Kyi5qyyRDNc4IYOqq4z-148" value="&lt;&lt;enumeration&gt;&#10;ServiceType" style="swimlane;fontStyle=0;childLayout=stackLayout;horizontal=1;startSize=30;fillColor=none;horizontalStack=0;resizeParent=1;resizeParentMax=0;resizeLast=0;collapsible=1;marginBottom=0;" parent="1" vertex="1">
                    <mxGeometry x="1095" y="-40" width="140" height="108" as="geometry"/>
                </mxCell>
                <mxCell id="6Kyi5qyyRDNc4IYOqq4z-149" value="Operation" style="text;strokeColor=none;fillColor=none;align=left;verticalAlign=top;spacingLeft=4;spacingRight=4;overflow=hidden;rotatable=0;points=[[0,0.5],[1,0.5]];portConstraint=eastwest;" parent="6Kyi5qyyRDNc4IYOqq4z-148" vertex="1">
                    <mxGeometry y="30" width="140" height="26" as="geometry"/>
                </mxCell>
                <mxCell id="6Kyi5qyyRDNc4IYOqq4z-150" value="MessagePart" style="text;strokeColor=none;fillColor=none;align=left;verticalAlign=top;spacingLeft=4;spacingRight=4;overflow=hidden;rotatable=0;points=[[0,0.5],[1,0.5]];portConstraint=eastwest;" parent="6Kyi5qyyRDNc4IYOqq4z-148" vertex="1">
                    <mxGeometry y="56" width="140" height="26" as="geometry"/>
                </mxCell>
                <mxCell id="6Kyi5qyyRDNc4IYOqq4z-151" value="None" style="text;strokeColor=none;fillColor=none;align=left;verticalAlign=top;spacingLeft=4;spacingRight=4;overflow=hidden;rotatable=0;points=[[0,0.5],[1,0.5]];portConstraint=eastwest;" parent="6Kyi5qyyRDNc4IYOqq4z-148" vertex="1">
                    <mxGeometry y="82" width="140" height="26" as="geometry"/>
                </mxCell>
                <mxCell id="6Kyi5qyyRDNc4IYOqq4z-153" value="" style="endArrow=open;endFill=1;endSize=12;html=1;exitX=1;exitY=0.5;exitDx=0;exitDy=0;entryX=0.5;entryY=0;entryDx=0;entryDy=0;" parent="1" source="107" target="137" edge="1">
                    <mxGeometry width="160" relative="1" as="geometry">
                        <mxPoint x="570" y="-218" as="sourcePoint"/>
                        <mxPoint x="830" y="-150" as="targetPoint"/>
                        <Array as="points">
                            <mxPoint x="990" y="-204"/>
                        </Array>
                    </mxGeometry>
                </mxCell>
                <mxCell id="86" value="PageUICDL" style="swimlane;fontStyle=1;align=center;verticalAlign=top;childLayout=stackLayout;horizontal=1;startSize=26;horizontalStack=0;resizeParent=1;resizeParentMax=0;resizeLast=0;collapsible=1;marginBottom=0;" parent="1" vertex="1">
                    <mxGeometry x="50" y="-420" width="170" height="268" as="geometry"/>
                </mxCell>
                <mxCell id="87" value="+ id: String" style="text;strokeColor=none;fillColor=none;align=left;verticalAlign=top;spacingLeft=4;spacingRight=4;overflow=hidden;rotatable=0;points=[[0,0.5],[1,0.5]];portConstraint=eastwest;" parent="86" vertex="1">
                    <mxGeometry y="26" width="170" height="26" as="geometry"/>
                </mxCell>
                <mxCell id="96" value="+ selector: String" style="text;strokeColor=none;fillColor=none;align=left;verticalAlign=top;spacingLeft=4;spacingRight=4;overflow=hidden;rotatable=0;points=[[0,0.5],[1,0.5]];portConstraint=eastwest;" parent="86" vertex="1">
                    <mxGeometry y="52" width="170" height="26" as="geometry"/>
                </mxCell>
                <mxCell id="94" value="+ category: String" style="text;strokeColor=none;fillColor=none;align=left;verticalAlign=top;spacingLeft=4;spacingRight=4;overflow=hidden;rotatable=0;points=[[0,0.5],[1,0.5]];portConstraint=eastwest;" parent="86" vertex="1">
                    <mxGeometry y="78" width="170" height="26" as="geometry"/>
                </mxCell>
                <mxCell id="95" value="+ style: Map&lt;String,String&gt;" style="text;strokeColor=none;fillColor=none;align=left;verticalAlign=top;spacingLeft=4;spacingRight=4;overflow=hidden;rotatable=0;points=[[0,0.5],[1,0.5]];portConstraint=eastwest;" parent="86" vertex="1">
                    <mxGeometry y="104" width="170" height="26" as="geometry"/>
                </mxCell>
                <mxCell id="100" value="+ body: LayoutComponent" style="text;strokeColor=none;fillColor=none;align=left;verticalAlign=top;spacingLeft=4;spacingRight=4;overflow=hidden;rotatable=0;points=[[0,0.5],[1,0.5]];portConstraint=eastwest;" parent="86" vertex="1">
                    <mxGeometry y="130" width="170" height="26" as="geometry"/>
                </mxCell>
                <mxCell id="97" value="+ header: LayoutComponent" style="text;strokeColor=none;fillColor=none;align=left;verticalAlign=top;spacingLeft=4;spacingRight=4;overflow=hidden;rotatable=0;points=[[0,0.5],[1,0.5]];portConstraint=eastwest;" parent="86" vertex="1">
                    <mxGeometry y="156" width="170" height="26" as="geometry"/>
                </mxCell>
                <mxCell id="98" value="+ sidebar: LayoutComponent" style="text;strokeColor=none;fillColor=none;align=left;verticalAlign=top;spacingLeft=4;spacingRight=4;overflow=hidden;rotatable=0;points=[[0,0.5],[1,0.5]];portConstraint=eastwest;" parent="86" vertex="1">
                    <mxGeometry y="182" width="170" height="26" as="geometry"/>
                </mxCell>
                <mxCell id="99" value="+ asidbar: LayoutComponent" style="text;strokeColor=none;fillColor=none;align=left;verticalAlign=top;spacingLeft=4;spacingRight=4;overflow=hidden;rotatable=0;points=[[0,0.5],[1,0.5]];portConstraint=eastwest;" parent="86" vertex="1">
                    <mxGeometry y="208" width="170" height="26" as="geometry"/>
                </mxCell>
                <mxCell id="101" value="+ footer: LayoutComponent" style="text;strokeColor=none;fillColor=none;align=left;verticalAlign=top;spacingLeft=4;spacingRight=4;overflow=hidden;rotatable=0;points=[[0,0.5],[1,0.5]];portConstraint=eastwest;" parent="86" vertex="1">
                    <mxGeometry y="234" width="170" height="26" as="geometry"/>
                </mxCell>
                <mxCell id="88" value="" style="line;strokeWidth=1;fillColor=none;align=left;verticalAlign=middle;spacingTop=-1;spacingLeft=3;spacingRight=3;rotatable=0;labelPosition=right;points=[];portConstraint=eastwest;" parent="86" vertex="1">
                    <mxGeometry y="260" width="170" height="8" as="geometry"/>
                </mxCell>
                <mxCell id="6Kyi5qyyRDNc4IYOqq4z-156" value="" style="endArrow=none;dashed=1;html=1;exitX=1;exitY=0.5;exitDx=0;exitDy=0;entryX=0;entryY=0.5;entryDx=0;entryDy=0;" parent="1" source="109" edge="1">
                    <mxGeometry width="50" height="50" relative="1" as="geometry">
                        <mxPoint x="530" y="-190" as="sourcePoint"/>
                        <mxPoint x="580" y="-331" as="targetPoint"/>
                    </mxGeometry>
                </mxCell>
                <mxCell id="6Kyi5qyyRDNc4IYOqq4z-158" value="&lt;span style=&quot;text-align: center&quot;&gt;&lt;b&gt;Category:&lt;/b&gt;&lt;/span&gt;&lt;br style=&quot;text-align: center&quot;&gt;&lt;span style=&quot;text-align: center&quot;&gt;1. Informative&lt;/span&gt;&lt;br style=&quot;text-align: center&quot;&gt;&lt;span style=&quot;text-align: center&quot;&gt;2. InputControl&lt;/span&gt;&lt;br style=&quot;text-align: center&quot;&gt;&lt;span style=&quot;text-align: center&quot;&gt;3. Navigation&lt;/span&gt;&lt;br style=&quot;text-align: center&quot;&gt;&lt;span style=&quot;text-align: center&quot;&gt;4. Container&lt;/span&gt;" style="shape=note;whiteSpace=wrap;html=1;size=14;verticalAlign=top;align=left;spacingTop=-6;" parent="1" vertex="1">
                    <mxGeometry x="580" y="-370" width="100" height="70" as="geometry"/>
                </mxCell>
                <mxCell id="6Kyi5qyyRDNc4IYOqq4z-159" value="&lt;div style=&quot;text-align: center&quot;&gt;&lt;span&gt;&lt;b&gt;Type:&lt;/b&gt;&lt;/span&gt;&lt;/div&gt;&lt;div style=&quot;text-align: center&quot;&gt;form,input,card...&lt;/div&gt;" style="shape=note;whiteSpace=wrap;html=1;size=14;verticalAlign=top;align=left;spacingTop=-6;" parent="1" vertex="1">
                    <mxGeometry x="740" y="-296" width="100" height="30" as="geometry"/>
                </mxCell>
                <mxCell id="6Kyi5qyyRDNc4IYOqq4z-160" value="" style="endArrow=none;dashed=1;html=1;exitX=1;exitY=0.5;exitDx=0;exitDy=0;" parent="1" source="112" target="6Kyi5qyyRDNc4IYOqq4z-159" edge="1">
                    <mxGeometry width="50" height="50" relative="1" as="geometry">
                        <mxPoint x="570" y="-321" as="sourcePoint"/>
                        <mxPoint x="590" y="-321" as="targetPoint"/>
                    </mxGeometry>
                </mxCell>
                <mxCell id="6Kyi5qyyRDNc4IYOqq4z-161" value="" style="endArrow=none;dashed=1;html=1;exitX=1;exitY=0.5;exitDx=0;exitDy=0;entryX=0;entryY=0.5;entryDx=0;entryDy=0;entryPerimeter=0;" parent="1" source="6Kyi5qyyRDNc4IYOqq4z-140" target="6Kyi5qyyRDNc4IYOqq4z-162" edge="1">
                    <mxGeometry width="50" height="50" relative="1" as="geometry">
                        <mxPoint x="570" y="-269" as="sourcePoint"/>
                        <mxPoint x="750" y="-270.56521739130403" as="targetPoint"/>
                    </mxGeometry>
                </mxCell>
                <mxCell id="6Kyi5qyyRDNc4IYOqq4z-162" value="&lt;div style=&quot;text-align: center&quot;&gt;&lt;b&gt;ServiceType&lt;/b&gt;&lt;/div&gt;&lt;div style=&quot;text-align: center&quot;&gt;UI Component can hold operation,message or nothing&lt;/div&gt;" style="shape=note;whiteSpace=wrap;html=1;size=14;verticalAlign=top;align=left;spacingTop=-6;" parent="1" vertex="1">
                    <mxGeometry x="1105" y="-152" width="140" height="60" as="geometry"/>
                </mxCell>
                <mxCell id="90" value="GraphStorage" style="swimlane;fontStyle=1;align=center;verticalAlign=top;childLayout=stackLayout;horizontal=1;startSize=26;horizontalStack=0;resizeParent=1;resizeParentMax=0;resizeLast=0;collapsible=1;marginBottom=0;" parent="1" vertex="1">
                    <mxGeometry x="-600" y="-450" width="320" height="476" as="geometry"/>
                </mxCell>
                <mxCell id="91" value="+ vertexStorages: Map&lt;String,VetexStorage&gt;" style="text;strokeColor=none;fillColor=none;align=left;verticalAlign=top;spacingLeft=4;spacingRight=4;overflow=hidden;rotatable=0;points=[[0,0.5],[1,0.5]];portConstraint=eastwest;" parent="90" vertex="1">
                    <mxGeometry y="26" width="320" height="26" as="geometry"/>
                </mxCell>
                <mxCell id="6Kyi5qyyRDNc4IYOqq4z-167" value="+ edgeStorages: Map&lt;String,EdgeStorage&gt;" style="text;strokeColor=none;fillColor=none;align=left;verticalAlign=top;spacingLeft=4;spacingRight=4;overflow=hidden;rotatable=0;points=[[0,0.5],[1,0.5]];portConstraint=eastwest;" parent="90" vertex="1">
                    <mxGeometry y="52" width="320" height="26" as="geometry"/>
                </mxCell>
                <mxCell id="6Kyi5qyyRDNc4IYOqq4z-168" value="+ editor: mxEditor" style="text;strokeColor=none;fillColor=none;align=left;verticalAlign=top;spacingLeft=4;spacingRight=4;overflow=hidden;rotatable=0;points=[[0,0.5],[1,0.5]];portConstraint=eastwest;" parent="90" vertex="1">
                    <mxGeometry y="78" width="320" height="26" as="geometry"/>
                </mxCell>
                <mxCell id="6Kyi5qyyRDNc4IYOqq4z-170" value="+ id: String" style="text;strokeColor=none;fillColor=none;align=left;verticalAlign=top;spacingLeft=4;spacingRight=4;overflow=hidden;rotatable=0;points=[[0,0.5],[1,0.5]];portConstraint=eastwest;" parent="90" vertex="1">
                    <mxGeometry y="104" width="320" height="26" as="geometry"/>
                </mxCell>
                <mxCell id="6Kyi5qyyRDNc4IYOqq4z-169" value="+ createComponentStrategy: ICreateComponentStrategy" style="text;strokeColor=none;fillColor=none;align=left;verticalAlign=top;spacingLeft=4;spacingRight=4;overflow=hidden;rotatable=0;points=[[0,0.5],[1,0.5]];portConstraint=eastwest;" parent="90" vertex="1">
                    <mxGeometry y="130" width="320" height="26" as="geometry"/>
                </mxCell>
                <mxCell id="92" value="" style="line;strokeWidth=1;fillColor=none;align=left;verticalAlign=middle;spacingTop=-1;spacingLeft=3;spacingRight=3;rotatable=0;labelPosition=right;points=[];portConstraint=eastwest;" parent="90" vertex="1">
                    <mxGeometry y="156" width="320" height="8" as="geometry"/>
                </mxCell>
                <mxCell id="93" value="+ initializeEditor(element,configurationFilePath)" style="text;strokeColor=none;fillColor=none;align=left;verticalAlign=top;spacingLeft=4;spacingRight=4;overflow=hidden;rotatable=0;points=[[0,0.5],[1,0.5]];portConstraint=eastwest;" parent="90" vertex="1">
                    <mxGeometry y="164" width="320" height="26" as="geometry"/>
                </mxCell>
                <mxCell id="6Kyi5qyyRDNc4IYOqq4z-163" value="+ syncComponentsStyle()" style="text;strokeColor=none;fillColor=none;align=left;verticalAlign=top;spacingLeft=4;spacingRight=4;overflow=hidden;rotatable=0;points=[[0,0.5],[1,0.5]];portConstraint=eastwest;" parent="90" vertex="1">
                    <mxGeometry y="190" width="320" height="26" as="geometry"/>
                </mxCell>
                <mxCell id="6Kyi5qyyRDNc4IYOqq4z-164" value="+ syncComponentsProperty()" style="text;strokeColor=none;fillColor=none;align=left;verticalAlign=top;spacingLeft=4;spacingRight=4;overflow=hidden;rotatable=0;points=[[0,0.5],[1,0.5]];portConstraint=eastwest;" parent="90" vertex="1">
                    <mxGeometry y="216" width="320" height="26" as="geometry"/>
                </mxCell>
                <mxCell id="6Kyi5qyyRDNc4IYOqq4z-165" value="+ createComponent(uiComponent, parent,x?,y?)" style="text;strokeColor=none;fillColor=none;align=left;verticalAlign=top;spacingLeft=4;spacingRight=4;overflow=hidden;rotatable=0;points=[[0,0.5],[1,0.5]];portConstraint=eastwest;" parent="90" vertex="1">
                    <mxGeometry y="242" width="320" height="26" as="geometry"/>
                </mxCell>
                <mxCell id="6Kyi5qyyRDNc4IYOqq4z-166" value="+ setStrategy(strategy:ICreateComponentStrategy)" style="text;strokeColor=none;fillColor=none;align=left;verticalAlign=top;spacingLeft=4;spacingRight=4;overflow=hidden;rotatable=0;points=[[0,0.5],[1,0.5]];portConstraint=eastwest;" parent="90" vertex="1">
                    <mxGeometry y="268" width="320" height="26" as="geometry"/>
                </mxCell>
                <mxCell id="6Kyi5qyyRDNc4IYOqq4z-171" value="+ insertVertex(vertexStorage:VertexStorage)" style="text;strokeColor=none;fillColor=none;align=left;verticalAlign=top;spacingLeft=4;spacingRight=4;overflow=hidden;rotatable=0;points=[[0,0.5],[1,0.5]];portConstraint=eastwest;" parent="90" vertex="1">
                    <mxGeometry y="294" width="320" height="26" as="geometry"/>
                </mxCell>
                <mxCell id="6Kyi5qyyRDNc4IYOqq4z-172" value="+ setStrategy(strategy:ICreateComponentStrategy)" style="text;strokeColor=none;fillColor=none;align=left;verticalAlign=top;spacingLeft=4;spacingRight=4;overflow=hidden;rotatable=0;points=[[0,0.5],[1,0.5]];portConstraint=eastwest;" parent="90" vertex="1">
                    <mxGeometry y="320" width="320" height="26" as="geometry"/>
                </mxCell>
                <mxCell id="6Kyi5qyyRDNc4IYOqq4z-173" value="+ getGraph()" style="text;strokeColor=none;fillColor=none;align=left;verticalAlign=top;spacingLeft=4;spacingRight=4;overflow=hidden;rotatable=0;points=[[0,0.5],[1,0.5]];portConstraint=eastwest;" parent="90" vertex="1">
                    <mxGeometry y="346" width="320" height="26" as="geometry"/>
                </mxCell>
                <mxCell id="6Kyi5qyyRDNc4IYOqq4z-174" value="+ getGraphModel()" style="text;strokeColor=none;fillColor=none;align=left;verticalAlign=top;spacingLeft=4;spacingRight=4;overflow=hidden;rotatable=0;points=[[0,0.5],[1,0.5]];portConstraint=eastwest;" parent="90" vertex="1">
                    <mxGeometry y="372" width="320" height="26" as="geometry"/>
                </mxCell>
                <mxCell id="6Kyi5qyyRDNc4IYOqq4z-207" value="+ getModified(): Boolean" style="text;strokeColor=none;fillColor=none;align=left;verticalAlign=top;spacingLeft=4;spacingRight=4;overflow=hidden;rotatable=0;points=[[0,0.5],[1,0.5]];portConstraint=eastwest;" parent="90" vertex="1">
                    <mxGeometry y="398" width="320" height="26" as="geometry"/>
                </mxCell>
                <mxCell id="6Kyi5qyyRDNc4IYOqq4z-208" value="+ setModified(modified:Boolean)" style="text;strokeColor=none;fillColor=none;align=left;verticalAlign=top;spacingLeft=4;spacingRight=4;overflow=hidden;rotatable=0;points=[[0,0.5],[1,0.5]];portConstraint=eastwest;" parent="90" vertex="1">
                    <mxGeometry y="424" width="320" height="26" as="geometry"/>
                </mxCell>
                <mxCell id="6Kyi5qyyRDNc4IYOqq4z-212" value="+ findVertexStorageByVertexID(id:String): VertexStorage" style="text;strokeColor=none;fillColor=none;align=left;verticalAlign=top;spacingLeft=4;spacingRight=4;overflow=hidden;rotatable=0;points=[[0,0.5],[1,0.5]];portConstraint=eastwest;" parent="90" vertex="1">
                    <mxGeometry y="450" width="320" height="26" as="geometry"/>
                </mxCell>
                <mxCell id="6Kyi5qyyRDNc4IYOqq4z-175" value="VertexStorage" style="swimlane;fontStyle=1;align=center;verticalAlign=top;childLayout=stackLayout;horizontal=1;startSize=26;horizontalStack=0;resizeParent=1;resizeParentMax=0;resizeLast=0;collapsible=1;marginBottom=0;" parent="1" vertex="1">
                    <mxGeometry x="-880" y="-230" width="250" height="346" as="geometry"/>
                </mxCell>
                <mxCell id="6Kyi5qyyRDNc4IYOqq4z-176" value="+ vertex: mxCell" style="text;strokeColor=none;fillColor=none;align=left;verticalAlign=top;spacingLeft=4;spacingRight=4;overflow=hidden;rotatable=0;points=[[0,0.5],[1,0.5]];portConstraint=eastwest;" parent="6Kyi5qyyRDNc4IYOqq4z-175" vertex="1">
                    <mxGeometry y="26" width="250" height="26" as="geometry"/>
                </mxCell>
                <mxCell id="6Kyi5qyyRDNc4IYOqq4z-190" value="+ uiComponent: UIComponent" style="text;strokeColor=#6c8ebf;fillColor=#dae8fc;align=left;verticalAlign=top;spacingLeft=4;spacingRight=4;overflow=hidden;rotatable=0;points=[[0,0.5],[1,0.5]];portConstraint=eastwest;" parent="6Kyi5qyyRDNc4IYOqq4z-175" vertex="1">
                    <mxGeometry y="52" width="250" height="26" as="geometry"/>
                </mxCell>
                <mxCell id="6Kyi5qyyRDNc4IYOqq4z-177" value="" style="line;strokeWidth=1;fillColor=none;align=left;verticalAlign=middle;spacingTop=-1;spacingLeft=3;spacingRight=3;rotatable=0;labelPosition=right;points=[];portConstraint=eastwest;" parent="6Kyi5qyyRDNc4IYOqq4z-175" vertex="1">
                    <mxGeometry y="78" width="250" height="8" as="geometry"/>
                </mxCell>
                <mxCell id="6Kyi5qyyRDNc4IYOqq4z-178" value="+ setStyle(style:Map&lt;String,String&gt;)" style="text;strokeColor=none;fillColor=none;align=left;verticalAlign=top;spacingLeft=4;spacingRight=4;overflow=hidden;rotatable=0;points=[[0,0.5],[1,0.5]];portConstraint=eastwest;" parent="6Kyi5qyyRDNc4IYOqq4z-175" vertex="1">
                    <mxGeometry y="86" width="250" height="26" as="geometry"/>
                </mxCell>
                <mxCell id="6Kyi5qyyRDNc4IYOqq4z-183" value="+ getStyle(): Map&lt;String,String&gt;" style="text;strokeColor=none;fillColor=none;align=left;verticalAlign=top;spacingLeft=4;spacingRight=4;overflow=hidden;rotatable=0;points=[[0,0.5],[1,0.5]];portConstraint=eastwest;" parent="6Kyi5qyyRDNc4IYOqq4z-175" vertex="1">
                    <mxGeometry y="112" width="250" height="26" as="geometry"/>
                </mxCell>
                <mxCell id="6Kyi5qyyRDNc4IYOqq4z-186" value="+ setDataBinding(dataBinding: DataBinding)" style="text;strokeColor=none;fillColor=none;align=left;verticalAlign=top;spacingLeft=4;spacingRight=4;overflow=hidden;rotatable=0;points=[[0,0.5],[1,0.5]];portConstraint=eastwest;" parent="6Kyi5qyyRDNc4IYOqq4z-175" vertex="1">
                    <mxGeometry y="138" width="250" height="26" as="geometry"/>
                </mxCell>
                <mxCell id="6Kyi5qyyRDNc4IYOqq4z-185" value="+ getDataBinding(): DataBinding" style="text;strokeColor=none;fillColor=none;align=left;verticalAlign=top;spacingLeft=4;spacingRight=4;overflow=hidden;rotatable=0;points=[[0,0.5],[1,0.5]];portConstraint=eastwest;" parent="6Kyi5qyyRDNc4IYOqq4z-175" vertex="1">
                    <mxGeometry y="164" width="250" height="26" as="geometry"/>
                </mxCell>
                <mxCell id="6Kyi5qyyRDNc4IYOqq4z-192" value="+ setParent(vertex: mxCell)" style="text;strokeColor=none;fillColor=none;align=left;verticalAlign=top;spacingLeft=4;spacingRight=4;overflow=hidden;rotatable=0;points=[[0,0.5],[1,0.5]];portConstraint=eastwest;" parent="6Kyi5qyyRDNc4IYOqq4z-175" vertex="1">
                    <mxGeometry y="190" width="250" height="26" as="geometry"/>
                </mxCell>
                <mxCell id="6Kyi5qyyRDNc4IYOqq4z-191" value="+ getParent(): mxCell" style="text;strokeColor=none;fillColor=none;align=left;verticalAlign=top;spacingLeft=4;spacingRight=4;overflow=hidden;rotatable=0;points=[[0,0.5],[1,0.5]];portConstraint=eastwest;" parent="6Kyi5qyyRDNc4IYOqq4z-175" vertex="1">
                    <mxGeometry y="216" width="250" height="26" as="geometry"/>
                </mxCell>
                <mxCell id="6Kyi5qyyRDNc4IYOqq4z-194" value="+ setIsPrimary(value: Boolean)" style="text;strokeColor=none;fillColor=none;align=left;verticalAlign=top;spacingLeft=4;spacingRight=4;overflow=hidden;rotatable=0;points=[[0,0.5],[1,0.5]];portConstraint=eastwest;" parent="6Kyi5qyyRDNc4IYOqq4z-175" vertex="1">
                    <mxGeometry y="242" width="250" height="26" as="geometry"/>
                </mxCell>
                <mxCell id="6Kyi5qyyRDNc4IYOqq4z-193" value="+ getIsPrimary(): Boolean" style="text;strokeColor=none;fillColor=none;align=left;verticalAlign=top;spacingLeft=4;spacingRight=4;overflow=hidden;rotatable=0;points=[[0,0.5],[1,0.5]];portConstraint=eastwest;" parent="6Kyi5qyyRDNc4IYOqq4z-175" vertex="1">
                    <mxGeometry y="268" width="250" height="26" as="geometry"/>
                </mxCell>
                <mxCell id="6Kyi5qyyRDNc4IYOqq4z-196" value="+ setValue(value:String)" style="text;strokeColor=none;fillColor=none;align=left;verticalAlign=top;spacingLeft=4;spacingRight=4;overflow=hidden;rotatable=0;points=[[0,0.5],[1,0.5]];portConstraint=eastwest;" parent="6Kyi5qyyRDNc4IYOqq4z-175" vertex="1">
                    <mxGeometry y="294" width="250" height="26" as="geometry"/>
                </mxCell>
                <mxCell id="6Kyi5qyyRDNc4IYOqq4z-195" value="+ getValue(): String" style="text;strokeColor=none;fillColor=none;align=left;verticalAlign=top;spacingLeft=4;spacingRight=4;overflow=hidden;rotatable=0;points=[[0,0.5],[1,0.5]];portConstraint=eastwest;" parent="6Kyi5qyyRDNc4IYOqq4z-175" vertex="1">
                    <mxGeometry y="320" width="250" height="26" as="geometry"/>
                </mxCell>
                <mxCell id="6Kyi5qyyRDNc4IYOqq4z-197" value="" style="endArrow=open;endFill=1;endSize=12;html=1;exitX=0;exitY=0.5;exitDx=0;exitDy=0;entryX=0.5;entryY=0;entryDx=0;entryDy=0;" parent="1" source="6Kyi5qyyRDNc4IYOqq4z-167" target="6Kyi5qyyRDNc4IYOqq4z-179" edge="1">
                    <mxGeometry width="160" relative="1" as="geometry">
                        <mxPoint x="-950" y="-80" as="sourcePoint"/>
                        <mxPoint x="-790" y="-80" as="targetPoint"/>
                        <Array as="points">
                            <mxPoint x="-995" y="-385"/>
                        </Array>
                    </mxGeometry>
                </mxCell>
                <mxCell id="6Kyi5qyyRDNc4IYOqq4z-198" value="" style="endArrow=open;endFill=1;endSize=12;html=1;exitX=0;exitY=0.5;exitDx=0;exitDy=0;entryX=0.5;entryY=0;entryDx=0;entryDy=0;" parent="1" source="91" target="6Kyi5qyyRDNc4IYOqq4z-175" edge="1">
                    <mxGeometry width="160" relative="1" as="geometry">
                        <mxPoint x="-950" y="-80" as="sourcePoint"/>
                        <mxPoint x="-790" y="-80" as="targetPoint"/>
                        <Array as="points">
                            <mxPoint x="-755" y="-411"/>
                        </Array>
                    </mxGeometry>
                </mxCell>
                <mxCell id="6Kyi5qyyRDNc4IYOqq4z-179" value="EdgeStorage" style="swimlane;fontStyle=1;align=center;verticalAlign=top;childLayout=stackLayout;horizontal=1;startSize=26;horizontalStack=0;resizeParent=1;resizeParentMax=0;resizeLast=0;collapsible=1;marginBottom=0;" parent="1" vertex="1">
                    <mxGeometry x="-1100" y="-230" width="210" height="112" as="geometry"/>
                </mxCell>
                <mxCell id="6Kyi5qyyRDNc4IYOqq4z-180" value="+ edge: mxCell" style="text;strokeColor=none;fillColor=none;align=left;verticalAlign=top;spacingLeft=4;spacingRight=4;overflow=hidden;rotatable=0;points=[[0,0.5],[1,0.5]];portConstraint=eastwest;" parent="6Kyi5qyyRDNc4IYOqq4z-179" vertex="1">
                    <mxGeometry y="26" width="210" height="26" as="geometry"/>
                </mxCell>
                <mxCell id="6Kyi5qyyRDNc4IYOqq4z-181" value="" style="line;strokeWidth=1;fillColor=none;align=left;verticalAlign=middle;spacingTop=-1;spacingLeft=3;spacingRight=3;rotatable=0;labelPosition=right;points=[];portConstraint=eastwest;" parent="6Kyi5qyyRDNc4IYOqq4z-179" vertex="1">
                    <mxGeometry y="52" width="210" height="8" as="geometry"/>
                </mxCell>
                <mxCell id="6Kyi5qyyRDNc4IYOqq4z-182" value="+ setStyle(style:Map&lt;String,String&gt;)" style="text;strokeColor=none;fillColor=none;align=left;verticalAlign=top;spacingLeft=4;spacingRight=4;overflow=hidden;rotatable=0;points=[[0,0.5],[1,0.5]];portConstraint=eastwest;" parent="6Kyi5qyyRDNc4IYOqq4z-179" vertex="1">
                    <mxGeometry y="60" width="210" height="26" as="geometry"/>
                </mxCell>
                <mxCell id="6Kyi5qyyRDNc4IYOqq4z-184" value="+ getStyle(): Map&lt;String,String&gt;" style="text;strokeColor=none;fillColor=none;align=left;verticalAlign=top;spacingLeft=4;spacingRight=4;overflow=hidden;rotatable=0;points=[[0,0.5],[1,0.5]];portConstraint=eastwest;" parent="6Kyi5qyyRDNc4IYOqq4z-179" vertex="1">
                    <mxGeometry y="86" width="210" height="26" as="geometry"/>
                </mxCell>
                <mxCell id="6Kyi5qyyRDNc4IYOqq4z-206" value="" style="endArrow=open;endFill=1;endSize=12;html=1;exitX=0;exitY=0.5;exitDx=0;exitDy=0;entryX=0.5;entryY=0;entryDx=0;entryDy=0;" parent="1" source="6Kyi5qyyRDNc4IYOqq4z-185" target="6Kyi5qyyRDNc4IYOqq4z-199" edge="1">
                    <mxGeometry width="160" relative="1" as="geometry">
                        <mxPoint x="-840" y="70" as="sourcePoint"/>
                        <mxPoint x="-680" y="70" as="targetPoint"/>
                        <Array as="points">
                            <mxPoint x="-1010" y="-53"/>
                        </Array>
                    </mxGeometry>
                </mxCell>
                <mxCell id="6Kyi5qyyRDNc4IYOqq4z-199" value="DataBinding" style="swimlane;fontStyle=1;align=center;verticalAlign=top;childLayout=stackLayout;horizontal=1;startSize=26;horizontalStack=0;resizeParent=1;resizeParentMax=0;resizeLast=0;collapsible=1;marginBottom=0;" parent="1" vertex="1">
                    <mxGeometry x="-1090" y="-20" width="160" height="104" as="geometry"/>
                </mxCell>
                <mxCell id="6Kyi5qyyRDNc4IYOqq4z-200" value="+ hasDataBinding: Boolean" style="text;strokeColor=none;fillColor=none;align=left;verticalAlign=top;spacingLeft=4;spacingRight=4;overflow=hidden;rotatable=0;points=[[0,0.5],[1,0.5]];portConstraint=eastwest;" parent="6Kyi5qyyRDNc4IYOqq4z-199" vertex="1">
                    <mxGeometry y="26" width="160" height="26" as="geometry"/>
                </mxCell>
                <mxCell id="6Kyi5qyyRDNc4IYOqq4z-203" value="+ isList: String" style="text;strokeColor=none;fillColor=none;align=left;verticalAlign=top;spacingLeft=4;spacingRight=4;overflow=hidden;rotatable=0;points=[[0,0.5],[1,0.5]];portConstraint=eastwest;" parent="6Kyi5qyyRDNc4IYOqq4z-199" vertex="1">
                    <mxGeometry y="52" width="160" height="26" as="geometry"/>
                </mxCell>
                <mxCell id="6Kyi5qyyRDNc4IYOqq4z-204" value="+ name: String" style="text;strokeColor=none;fillColor=none;align=left;verticalAlign=top;spacingLeft=4;spacingRight=4;overflow=hidden;rotatable=0;points=[[0,0.5],[1,0.5]];portConstraint=eastwest;" parent="6Kyi5qyyRDNc4IYOqq4z-199" vertex="1">
                    <mxGeometry y="78" width="160" height="26" as="geometry"/>
                </mxCell>
                <mxCell id="6Kyi5qyyRDNc4IYOqq4z-211" value="Store DataBinding Relation between UIComponent and VertexStorage" style="shape=note;whiteSpace=wrap;html=1;size=14;verticalAlign=top;align=left;spacingTop=-6;fillColor=#ffffff;" parent="1" vertex="1">
                    <mxGeometry x="-1280" y="19" width="170" height="49" as="geometry"/>
                </mxCell>
                <mxCell id="6Kyi5qyyRDNc4IYOqq4z-213" value="" style="endArrow=none;dashed=1;html=1;exitX=0.5;exitY=0;exitDx=0;exitDy=0;exitPerimeter=0;" parent="1" source="6Kyi5qyyRDNc4IYOqq4z-211" edge="1">
                    <mxGeometry width="50" height="50" relative="1" as="geometry">
                        <mxPoint x="-1170" y="-120" as="sourcePoint"/>
                        <mxPoint x="-1090" y="-7" as="targetPoint"/>
                    </mxGeometry>
                </mxCell>
                <mxCell id="x0L3t08BuCJ1Ayk19hSp-138" value="Send Operation return type to next pipe" style="shape=note;whiteSpace=wrap;html=1;size=14;verticalAlign=top;align=left;spacingTop=-6;" vertex="1" parent="1">
                    <mxGeometry x="470" y="940" width="120" height="50" as="geometry"/>
                </mxCell>
                <mxCell id="x0L3t08BuCJ1Ayk19hSp-139" value="" style="endArrow=none;dashed=1;html=1;entryX=0;entryY=0.5;entryDx=0;entryDy=0;exitX=0;exitY=0;exitDx=43;exitDy=0;exitPerimeter=0;" edge="1" parent="1" source="x0L3t08BuCJ1Ayk19hSp-138" target="22">
                    <mxGeometry width="50" height="50" relative="1" as="geometry">
                        <mxPoint x="480" y="910" as="sourcePoint"/>
                        <mxPoint x="530" y="860" as="targetPoint"/>
                    </mxGeometry>
                </mxCell>
                <mxCell id="19" value="GeneratePipelineTab" style="swimlane;fontStyle=1;align=center;verticalAlign=top;childLayout=stackLayout;horizontal=1;startSize=26;horizontalStack=0;resizeParent=1;resizeParentMax=0;resizeLast=0;collapsible=1;marginBottom=0;" parent="1" vertex="1">
                    <mxGeometry x="530" y="730" width="220" height="138" as="geometry"/>
                </mxCell>
                <mxCell id="20" value="+ uiComponent: UIComponent" style="text;strokeColor=none;fillColor=none;align=left;verticalAlign=top;spacingLeft=4;spacingRight=4;overflow=hidden;rotatable=0;points=[[0,0.5],[1,0.5]];portConstraint=eastwest;" parent="19" vertex="1">
                    <mxGeometry y="26" width="220" height="26" as="geometry"/>
                </mxCell>
                <mxCell id="64" value="+ uiComponentOptions: Array&lt;String&gt;" style="text;strokeColor=none;fillColor=none;align=left;verticalAlign=top;spacingLeft=4;spacingRight=4;overflow=hidden;rotatable=0;points=[[0,0.5],[1,0.5]];portConstraint=eastwest;" parent="19" vertex="1">
                    <mxGeometry y="52" width="220" height="26" as="geometry"/>
                </mxCell>
                <mxCell id="21" value="" style="line;strokeWidth=1;fillColor=none;align=left;verticalAlign=middle;spacingTop=-1;spacingLeft=3;spacingRight=3;rotatable=0;labelPosition=right;points=[];portConstraint=eastwest;" parent="19" vertex="1">
                    <mxGeometry y="78" width="220" height="8" as="geometry"/>
                </mxCell>
                <mxCell id="22" value="+ generatePipes()" style="text;strokeColor=#82b366;fillColor=#d5e8d4;align=left;verticalAlign=top;spacingLeft=4;spacingRight=4;overflow=hidden;rotatable=0;points=[[0,0.5],[1,0.5]];portConstraint=eastwest;" parent="19" vertex="1">
                    <mxGeometry y="86" width="220" height="26" as="geometry"/>
                </mxCell>
                <mxCell id="68" value="+ back()" style="text;strokeColor=none;fillColor=none;align=left;verticalAlign=top;spacingLeft=4;spacingRight=4;overflow=hidden;rotatable=0;points=[[0,0.5],[1,0.5]];portConstraint=eastwest;" parent="19" vertex="1">
                    <mxGeometry y="112" width="220" height="26" as="geometry"/>
                </mxCell>
            </root>
        </mxGraphModel>
    </diagram>
    <diagram id="TekzPve0cHMmsc98Y4VA" name="Page-2">
        <mxGraphModel dx="4539" dy="434" grid="1" gridSize="10" guides="1" tooltips="1" connect="1" arrows="1" fold="1" page="1" pageScale="1" pageWidth="3300" pageHeight="4681" math="0" shadow="0">
            <root>
                <mxCell id="MfXnizhnspjC-Dx9adCB-0"/>
                <mxCell id="MfXnizhnspjC-Dx9adCB-1" parent="MfXnizhnspjC-Dx9adCB-0"/>
                <mxCell id="MfXnizhnspjC-Dx9adCB-44" value="+" style="rounded=0;whiteSpace=wrap;html=1;fillColor=#ffffff;" parent="MfXnizhnspjC-Dx9adCB-1" vertex="1">
                    <mxGeometry x="-510" y="50" width="1430" height="680" as="geometry"/>
                </mxCell>
                <mxCell id="MfXnizhnspjC-Dx9adCB-2" value="&lt;font style=&quot;font-size: 14px&quot;&gt;&lt;b&gt;AppComponent&lt;br&gt;(Using CoreUI layout)&lt;/b&gt;&lt;/font&gt;" style="rounded=0;whiteSpace=wrap;html=1;" parent="MfXnizhnspjC-Dx9adCB-1" vertex="1">
                    <mxGeometry x="300" y="70" width="160" height="90" as="geometry"/>
                </mxCell>
                <mxCell id="MfXnizhnspjC-Dx9adCB-3" value="&lt;b&gt;AppHeaderComponent&lt;/b&gt;" style="rounded=0;whiteSpace=wrap;html=1;" parent="MfXnizhnspjC-Dx9adCB-1" vertex="1">
                    <mxGeometry x="100" y="240" width="140" height="60" as="geometry"/>
                </mxCell>
                <mxCell id="MfXnizhnspjC-Dx9adCB-4" value="&lt;b&gt;AppBodyComponent&lt;/b&gt;" style="rounded=0;whiteSpace=wrap;html=1;" parent="MfXnizhnspjC-Dx9adCB-1" vertex="1">
                    <mxGeometry x="320" y="240" width="140" height="60" as="geometry"/>
                </mxCell>
                <mxCell id="MfXnizhnspjC-Dx9adCB-5" value="&lt;b&gt;AppFooterComponent&lt;/b&gt;" style="rounded=0;whiteSpace=wrap;html=1;" parent="MfXnizhnspjC-Dx9adCB-1" vertex="1">
                    <mxGeometry x="530" y="240" width="140" height="60" as="geometry"/>
                </mxCell>
                <mxCell id="MfXnizhnspjC-Dx9adCB-6" value="&lt;b&gt;AppSeting&lt;/b&gt;" style="rounded=0;whiteSpace=wrap;html=1;" parent="MfXnizhnspjC-Dx9adCB-1" vertex="1">
                    <mxGeometry x="410" y="350" width="140" height="60" as="geometry"/>
                </mxCell>
                <mxCell id="MfXnizhnspjC-Dx9adCB-7" value="" style="endArrow=classic;html=1;exitX=0.5;exitY=1;exitDx=0;exitDy=0;entryX=0.5;entryY=0;entryDx=0;entryDy=0;" parent="MfXnizhnspjC-Dx9adCB-1" source="MfXnizhnspjC-Dx9adCB-2" target="MfXnizhnspjC-Dx9adCB-3" edge="1">
                    <mxGeometry width="50" height="50" relative="1" as="geometry">
                        <mxPoint x="350" y="300" as="sourcePoint"/>
                        <mxPoint x="400" y="250" as="targetPoint"/>
                    </mxGeometry>
                </mxCell>
                <mxCell id="MfXnizhnspjC-Dx9adCB-8" value="" style="endArrow=classic;html=1;exitX=0.5;exitY=1;exitDx=0;exitDy=0;entryX=0.5;entryY=0;entryDx=0;entryDy=0;" parent="MfXnizhnspjC-Dx9adCB-1" source="MfXnizhnspjC-Dx9adCB-2" target="MfXnizhnspjC-Dx9adCB-4" edge="1">
                    <mxGeometry width="50" height="50" relative="1" as="geometry">
                        <mxPoint x="370" y="170" as="sourcePoint"/>
                        <mxPoint x="180" y="250" as="targetPoint"/>
                    </mxGeometry>
                </mxCell>
                <mxCell id="MfXnizhnspjC-Dx9adCB-9" value="" style="endArrow=classic;html=1;exitX=0.5;exitY=1;exitDx=0;exitDy=0;entryX=0.5;entryY=0;entryDx=0;entryDy=0;" parent="MfXnizhnspjC-Dx9adCB-1" source="MfXnizhnspjC-Dx9adCB-2" target="MfXnizhnspjC-Dx9adCB-5" edge="1">
                    <mxGeometry width="50" height="50" relative="1" as="geometry">
                        <mxPoint x="370" y="170" as="sourcePoint"/>
                        <mxPoint x="340" y="250" as="targetPoint"/>
                    </mxGeometry>
                </mxCell>
                <mxCell id="MfXnizhnspjC-Dx9adCB-10" value="" style="endArrow=classic;html=1;exitX=0.5;exitY=1;exitDx=0;exitDy=0;entryX=0.5;entryY=0;entryDx=0;entryDy=0;" parent="MfXnizhnspjC-Dx9adCB-1" source="MfXnizhnspjC-Dx9adCB-4" target="MfXnizhnspjC-Dx9adCB-6" edge="1">
                    <mxGeometry width="50" height="50" relative="1" as="geometry">
                        <mxPoint x="370" y="170" as="sourcePoint"/>
                        <mxPoint x="500" y="250" as="targetPoint"/>
                    </mxGeometry>
                </mxCell>
                <mxCell id="MfXnizhnspjC-Dx9adCB-11" value="&lt;b&gt;&lt;font style=&quot;font-size: 14px&quot;&gt;AppWizard&lt;/font&gt;&lt;/b&gt;" style="rounded=0;whiteSpace=wrap;html=1;" parent="MfXnizhnspjC-Dx9adCB-1" vertex="1">
                    <mxGeometry x="-110" y="340" width="120" height="60" as="geometry"/>
                </mxCell>
                <mxCell id="MfXnizhnspjC-Dx9adCB-12" value="" style="endArrow=classic;html=1;exitX=0.5;exitY=1;exitDx=0;exitDy=0;entryX=1;entryY=0.5;entryDx=0;entryDy=0;dashed=1;" parent="MfXnizhnspjC-Dx9adCB-1" source="MfXnizhnspjC-Dx9adCB-3" target="MfXnizhnspjC-Dx9adCB-11" edge="1">
                    <mxGeometry width="50" height="50" relative="1" as="geometry">
                        <mxPoint x="180" y="400" as="sourcePoint"/>
                        <mxPoint x="230" y="350" as="targetPoint"/>
                    </mxGeometry>
                </mxCell>
                <mxCell id="MfXnizhnspjC-Dx9adCB-13" value="&lt;b&gt;&lt;font style=&quot;font-size: 14px&quot;&gt;Open Dialog&lt;/font&gt;&lt;/b&gt;" style="text;html=1;strokeColor=none;fillColor=none;align=center;verticalAlign=middle;whiteSpace=wrap;rounded=0;" parent="MfXnizhnspjC-Dx9adCB-1" vertex="1">
                    <mxGeometry x="60" y="350" width="90" height="20" as="geometry"/>
                </mxCell>
                <mxCell id="MfXnizhnspjC-Dx9adCB-14" value="&lt;span style=&quot;font-size: 14px&quot;&gt;&lt;b&gt;GeneratePipelineTab&lt;/b&gt;&lt;/span&gt;" style="rounded=0;whiteSpace=wrap;html=1;" parent="MfXnizhnspjC-Dx9adCB-1" vertex="1">
                    <mxGeometry x="140" y="460" width="150" height="60" as="geometry"/>
                </mxCell>
                <mxCell id="MfXnizhnspjC-Dx9adCB-15" value="&lt;b&gt;&lt;font style=&quot;font-size: 14px&quot;&gt;BuildComponentTab&lt;/font&gt;&lt;/b&gt;" style="rounded=0;whiteSpace=wrap;html=1;" parent="MfXnizhnspjC-Dx9adCB-1" vertex="1">
                    <mxGeometry x="-490" y="460" width="160" height="60" as="geometry"/>
                </mxCell>
                <mxCell id="MfXnizhnspjC-Dx9adCB-16" value="&lt;span style=&quot;font-size: 14px&quot;&gt;&lt;b&gt;BindServiceTab&lt;/b&gt;&lt;/span&gt;" style="rounded=0;whiteSpace=wrap;html=1;" parent="MfXnizhnspjC-Dx9adCB-1" vertex="1">
                    <mxGeometry x="10" y="460" width="120" height="60" as="geometry"/>
                </mxCell>
                <mxCell id="MfXnizhnspjC-Dx9adCB-17" value="&lt;b&gt;&lt;font style=&quot;font-size: 14px&quot;&gt;CheckStatusTab&lt;/font&gt;&lt;/b&gt;" style="rounded=0;whiteSpace=wrap;html=1;" parent="MfXnizhnspjC-Dx9adCB-1" vertex="1">
                    <mxGeometry x="-120" y="460" width="120" height="60" as="geometry"/>
                </mxCell>
                <mxCell id="MfXnizhnspjC-Dx9adCB-18" value="&lt;span style=&quot;font-size: 14px&quot;&gt;&lt;b&gt;CompositeComponentTab&lt;/b&gt;&lt;/span&gt;" style="rounded=0;whiteSpace=wrap;html=1;" parent="MfXnizhnspjC-Dx9adCB-1" vertex="1">
                    <mxGeometry x="-320" y="460" width="190" height="60" as="geometry"/>
                </mxCell>
                <mxCell id="MfXnizhnspjC-Dx9adCB-19" value="" style="endArrow=classic;html=1;exitX=0.5;exitY=1;exitDx=0;exitDy=0;entryX=0.5;entryY=0;entryDx=0;entryDy=0;" parent="MfXnizhnspjC-Dx9adCB-1" source="MfXnizhnspjC-Dx9adCB-11" target="MfXnizhnspjC-Dx9adCB-15" edge="1">
                    <mxGeometry width="50" height="50" relative="1" as="geometry">
                        <mxPoint x="390" y="170" as="sourcePoint"/>
                        <mxPoint x="180" y="250" as="targetPoint"/>
                    </mxGeometry>
                </mxCell>
                <mxCell id="MfXnizhnspjC-Dx9adCB-20" value="" style="endArrow=classic;html=1;exitX=0.5;exitY=1;exitDx=0;exitDy=0;entryX=0.5;entryY=0;entryDx=0;entryDy=0;" parent="MfXnizhnspjC-Dx9adCB-1" source="MfXnizhnspjC-Dx9adCB-11" target="MfXnizhnspjC-Dx9adCB-18" edge="1">
                    <mxGeometry width="50" height="50" relative="1" as="geometry">
                        <mxPoint x="-40" y="410" as="sourcePoint"/>
                        <mxPoint x="-400" y="470" as="targetPoint"/>
                    </mxGeometry>
                </mxCell>
                <mxCell id="MfXnizhnspjC-Dx9adCB-21" value="" style="endArrow=classic;html=1;" parent="MfXnizhnspjC-Dx9adCB-1" target="MfXnizhnspjC-Dx9adCB-17" edge="1">
                    <mxGeometry width="50" height="50" relative="1" as="geometry">
                        <mxPoint x="-50" y="400" as="sourcePoint"/>
                        <mxPoint x="-215" y="470" as="targetPoint"/>
                    </mxGeometry>
                </mxCell>
                <mxCell id="MfXnizhnspjC-Dx9adCB-22" value="" style="endArrow=classic;html=1;exitX=0.5;exitY=1;exitDx=0;exitDy=0;entryX=0.5;entryY=0;entryDx=0;entryDy=0;" parent="MfXnizhnspjC-Dx9adCB-1" source="MfXnizhnspjC-Dx9adCB-11" target="MfXnizhnspjC-Dx9adCB-16" edge="1">
                    <mxGeometry width="50" height="50" relative="1" as="geometry">
                        <mxPoint x="-40" y="410" as="sourcePoint"/>
                        <mxPoint x="-46.66666666666697" y="470" as="targetPoint"/>
                    </mxGeometry>
                </mxCell>
                <mxCell id="MfXnizhnspjC-Dx9adCB-23" value="" style="endArrow=classic;html=1;exitX=0.5;exitY=1;exitDx=0;exitDy=0;entryX=0.5;entryY=0;entryDx=0;entryDy=0;" parent="MfXnizhnspjC-Dx9adCB-1" source="MfXnizhnspjC-Dx9adCB-11" target="MfXnizhnspjC-Dx9adCB-14" edge="1">
                    <mxGeometry width="50" height="50" relative="1" as="geometry">
                        <mxPoint x="-40" y="410" as="sourcePoint"/>
                        <mxPoint x="80" y="470" as="targetPoint"/>
                    </mxGeometry>
                </mxCell>
                <mxCell id="MfXnizhnspjC-Dx9adCB-24" value="&lt;b&gt;GraphEditor&lt;/b&gt;" style="rounded=0;whiteSpace=wrap;html=1;" parent="MfXnizhnspjC-Dx9adCB-1" vertex="1">
                    <mxGeometry x="240" y="350" width="140" height="60" as="geometry"/>
                </mxCell>
                <mxCell id="MfXnizhnspjC-Dx9adCB-25" value="" style="endArrow=classic;html=1;exitX=0.5;exitY=1;exitDx=0;exitDy=0;entryX=0.5;entryY=0;entryDx=0;entryDy=0;" parent="MfXnizhnspjC-Dx9adCB-1" source="MfXnizhnspjC-Dx9adCB-4" target="MfXnizhnspjC-Dx9adCB-24" edge="1">
                    <mxGeometry width="50" height="50" relative="1" as="geometry">
                        <mxPoint x="400" y="310" as="sourcePoint"/>
                        <mxPoint x="480" y="360" as="targetPoint"/>
                    </mxGeometry>
                </mxCell>
                <mxCell id="MfXnizhnspjC-Dx9adCB-26" value="&lt;b&gt;ServiceConfiguration&lt;/b&gt;" style="rounded=0;whiteSpace=wrap;html=1;" parent="MfXnizhnspjC-Dx9adCB-1" vertex="1">
                    <mxGeometry x="550" y="540" width="140" height="60" as="geometry"/>
                </mxCell>
                <mxCell id="MfXnizhnspjC-Dx9adCB-27" value="&lt;b&gt;StyleConfiguration&lt;/b&gt;" style="rounded=0;whiteSpace=wrap;html=1;" parent="MfXnizhnspjC-Dx9adCB-1" vertex="1">
                    <mxGeometry x="400" y="540" width="140" height="60" as="geometry"/>
                </mxCell>
                <mxCell id="MfXnizhnspjC-Dx9adCB-28" value="" style="endArrow=classic;html=1;exitX=0.5;exitY=1;exitDx=0;exitDy=0;entryX=0.5;entryY=0;entryDx=0;entryDy=0;" parent="MfXnizhnspjC-Dx9adCB-1" source="MfXnizhnspjC-Dx9adCB-36" target="MfXnizhnspjC-Dx9adCB-27" edge="1">
                    <mxGeometry width="50" height="50" relative="1" as="geometry">
                        <mxPoint x="400" y="310" as="sourcePoint"/>
                        <mxPoint x="320" y="360" as="targetPoint"/>
                    </mxGeometry>
                </mxCell>
                <mxCell id="MfXnizhnspjC-Dx9adCB-29" value="" style="endArrow=classic;html=1;exitX=0.5;exitY=1;exitDx=0;exitDy=0;entryX=0.5;entryY=0;entryDx=0;entryDy=0;" parent="MfXnizhnspjC-Dx9adCB-1" source="MfXnizhnspjC-Dx9adCB-36" target="MfXnizhnspjC-Dx9adCB-26" edge="1">
                    <mxGeometry width="50" height="50" relative="1" as="geometry">
                        <mxPoint x="410" y="320" as="sourcePoint"/>
                        <mxPoint x="330" y="370" as="targetPoint"/>
                    </mxGeometry>
                </mxCell>
                <mxCell id="MfXnizhnspjC-Dx9adCB-31" value="&lt;b&gt;CodeEditor&lt;/b&gt;" style="rounded=0;whiteSpace=wrap;html=1;" parent="MfXnizhnspjC-Dx9adCB-1" vertex="1">
                    <mxGeometry x="250" y="540" width="140" height="60" as="geometry"/>
                </mxCell>
                <mxCell id="MfXnizhnspjC-Dx9adCB-32" value="" style="endArrow=classic;html=1;dashed=1;exitX=0.5;exitY=1;exitDx=0;exitDy=0;entryX=0.5;entryY=0;entryDx=0;entryDy=0;" parent="MfXnizhnspjC-Dx9adCB-1" source="MfXnizhnspjC-Dx9adCB-24" target="MfXnizhnspjC-Dx9adCB-31" edge="1">
                    <mxGeometry width="50" height="50" relative="1" as="geometry">
                        <mxPoint x="260" y="430" as="sourcePoint"/>
                        <mxPoint x="310" y="380" as="targetPoint"/>
                    </mxGeometry>
                </mxCell>
                <mxCell id="MfXnizhnspjC-Dx9adCB-33" value="&lt;b&gt;&lt;font style=&quot;font-size: 14px&quot;&gt;Open Dialog&lt;/font&gt;&lt;/b&gt;" style="text;html=1;strokeColor=none;fillColor=none;align=center;verticalAlign=middle;whiteSpace=wrap;rounded=0;" parent="MfXnizhnspjC-Dx9adCB-1" vertex="1">
                    <mxGeometry x="320" y="430" width="90" height="20" as="geometry"/>
                </mxCell>
                <mxCell id="MfXnizhnspjC-Dx9adCB-34" value="&lt;b&gt;PageEditorTab&lt;/b&gt;" style="rounded=0;whiteSpace=wrap;html=1;" parent="MfXnizhnspjC-Dx9adCB-1" vertex="1">
                    <mxGeometry x="760" y="460" width="140" height="60" as="geometry"/>
                </mxCell>
                <mxCell id="MfXnizhnspjC-Dx9adCB-35" value="&lt;b&gt;NavigationEditorTab&lt;/b&gt;" style="rounded=0;whiteSpace=wrap;html=1;" parent="MfXnizhnspjC-Dx9adCB-1" vertex="1">
                    <mxGeometry x="610" y="460" width="140" height="60" as="geometry"/>
                </mxCell>
                <mxCell id="MfXnizhnspjC-Dx9adCB-36" value="&lt;b&gt;ConfigurationTab&lt;/b&gt;" style="rounded=0;whiteSpace=wrap;html=1;" parent="MfXnizhnspjC-Dx9adCB-1" vertex="1">
                    <mxGeometry x="460" y="460" width="140" height="60" as="geometry"/>
                </mxCell>
                <mxCell id="MfXnizhnspjC-Dx9adCB-37" value="" style="endArrow=classic;html=1;entryX=0.5;entryY=0;entryDx=0;entryDy=0;exitX=0.5;exitY=1;exitDx=0;exitDy=0;" parent="MfXnizhnspjC-Dx9adCB-1" source="MfXnizhnspjC-Dx9adCB-6" target="MfXnizhnspjC-Dx9adCB-36" edge="1">
                    <mxGeometry width="50" height="50" relative="1" as="geometry">
                        <mxPoint x="540" y="530" as="sourcePoint"/>
                        <mxPoint x="480" y="550" as="targetPoint"/>
                    </mxGeometry>
                </mxCell>
                <mxCell id="MfXnizhnspjC-Dx9adCB-38" value="" style="endArrow=classic;html=1;entryX=0.5;entryY=0;entryDx=0;entryDy=0;exitX=0.5;exitY=1;exitDx=0;exitDy=0;" parent="MfXnizhnspjC-Dx9adCB-1" source="MfXnizhnspjC-Dx9adCB-6" target="MfXnizhnspjC-Dx9adCB-35" edge="1">
                    <mxGeometry width="50" height="50" relative="1" as="geometry">
                        <mxPoint x="490" y="420" as="sourcePoint"/>
                        <mxPoint x="540" y="470" as="targetPoint"/>
                    </mxGeometry>
                </mxCell>
                <mxCell id="MfXnizhnspjC-Dx9adCB-39" value="" style="endArrow=classic;html=1;entryX=0.457;entryY=-0.017;entryDx=0;entryDy=0;entryPerimeter=0;" parent="MfXnizhnspjC-Dx9adCB-1" target="MfXnizhnspjC-Dx9adCB-34" edge="1">
                    <mxGeometry width="50" height="50" relative="1" as="geometry">
                        <mxPoint x="480" y="410" as="sourcePoint"/>
                        <mxPoint x="690" y="470" as="targetPoint"/>
                    </mxGeometry>
                </mxCell>
                <mxCell id="MfXnizhnspjC-Dx9adCB-40" value="&lt;b&gt;XTerminal&lt;/b&gt;" style="rounded=0;whiteSpace=wrap;html=1;" parent="MfXnizhnspjC-Dx9adCB-1" vertex="1">
                    <mxGeometry x="180" y="630" width="140" height="60" as="geometry"/>
                </mxCell>
                <mxCell id="MfXnizhnspjC-Dx9adCB-41" value="" style="endArrow=classic;html=1;exitX=0.5;exitY=1;exitDx=0;exitDy=0;entryX=0.5;entryY=0;entryDx=0;entryDy=0;" parent="MfXnizhnspjC-Dx9adCB-1" source="MfXnizhnspjC-Dx9adCB-31" target="MfXnizhnspjC-Dx9adCB-40" edge="1">
                    <mxGeometry width="50" height="50" relative="1" as="geometry">
                        <mxPoint x="460" y="560" as="sourcePoint"/>
                        <mxPoint x="510" y="510" as="targetPoint"/>
                    </mxGeometry>
                </mxCell>
            </root>
        </mxGraphModel>
    </diagram>
    <diagram id="tksyId0CnFN7gAjIRKWC" name="Page-3">
        <mxGraphModel dx="1458" dy="511" grid="1" gridSize="10" guides="1" tooltips="1" connect="1" arrows="1" fold="1" page="1" pageScale="1" pageWidth="3300" pageHeight="4681" math="0" shadow="0">
            <root>
                <mxCell id="dFnY3A74wQprLPWWGfIj-0"/>
                <mxCell id="dFnY3A74wQprLPWWGfIj-1" parent="dFnY3A74wQprLPWWGfIj-0"/>
                <mxCell id="VJ37WGlB0gGwLEApV15N-22" value="" style="rounded=0;whiteSpace=wrap;html=1;" vertex="1" parent="dFnY3A74wQprLPWWGfIj-1">
                    <mxGeometry x="1180" y="600" width="740" height="640" as="geometry"/>
                </mxCell>
                <mxCell id="dFnY3A74wQprLPWWGfIj-28" value="" style="rounded=0;whiteSpace=wrap;html=1;" vertex="1" parent="dFnY3A74wQprLPWWGfIj-1">
                    <mxGeometry x="530" y="680" width="620" height="330" as="geometry"/>
                </mxCell>
                <mxCell id="dFnY3A74wQprLPWWGfIj-7" value="Operation" style="swimlane;fontStyle=1;align=center;verticalAlign=top;childLayout=stackLayout;horizontal=1;startSize=26;horizontalStack=0;resizeParent=1;resizeParentMax=0;resizeLast=0;collapsible=1;marginBottom=0;" vertex="1" parent="dFnY3A74wQprLPWWGfIj-1">
                    <mxGeometry x="820" y="870" width="160" height="130" as="geometry"/>
                </mxCell>
                <mxCell id="dFnY3A74wQprLPWWGfIj-8" value="+ operation: String" style="text;strokeColor=none;fillColor=none;align=left;verticalAlign=top;spacingLeft=4;spacingRight=4;overflow=hidden;rotatable=0;points=[[0,0.5],[1,0.5]];portConstraint=eastwest;" vertex="1" parent="dFnY3A74wQprLPWWGfIj-7">
                    <mxGeometry y="26" width="160" height="26" as="geometry"/>
                </mxCell>
                <mxCell id="dFnY3A74wQprLPWWGfIj-13" value="+ className: String" style="text;strokeColor=none;fillColor=none;align=left;verticalAlign=top;spacingLeft=4;spacingRight=4;overflow=hidden;rotatable=0;points=[[0,0.5],[1,0.5]];portConstraint=eastwest;" vertex="1" parent="dFnY3A74wQprLPWWGfIj-7">
                    <mxGeometry y="52" width="160" height="26" as="geometry"/>
                </mxCell>
                <mxCell id="dFnY3A74wQprLPWWGfIj-12" value="+ serviceID: String" style="text;strokeColor=none;fillColor=none;align=left;verticalAlign=top;spacingLeft=4;spacingRight=4;overflow=hidden;rotatable=0;points=[[0,0.5],[1,0.5]];portConstraint=eastwest;" vertex="1" parent="dFnY3A74wQprLPWWGfIj-7">
                    <mxGeometry y="78" width="160" height="26" as="geometry"/>
                </mxCell>
                <mxCell id="dFnY3A74wQprLPWWGfIj-14" value="+ returnData: Object" style="text;strokeColor=none;fillColor=none;align=left;verticalAlign=top;spacingLeft=4;spacingRight=4;overflow=hidden;rotatable=0;points=[[0,0.5],[1,0.5]];portConstraint=eastwest;" vertex="1" parent="dFnY3A74wQprLPWWGfIj-7">
                    <mxGeometry y="104" width="160" height="26" as="geometry"/>
                </mxCell>
                <mxCell id="dFnY3A74wQprLPWWGfIj-11" value="" style="endArrow=open;endFill=1;endSize=12;html=1;exitX=1;exitY=0.5;exitDx=0;exitDy=0;" edge="1" parent="dFnY3A74wQprLPWWGfIj-1" source="dFnY3A74wQprLPWWGfIj-6">
                    <mxGeometry width="160" relative="1" as="geometry">
                        <mxPoint x="800" y="870" as="sourcePoint"/>
                        <mxPoint x="900" y="870" as="targetPoint"/>
                        <Array as="points">
                            <mxPoint x="900" y="835"/>
                        </Array>
                    </mxGeometry>
                </mxCell>
                <mxCell id="dFnY3A74wQprLPWWGfIj-15" value="data: contains unfolding data structure(unfolding complextype" style="shape=note;whiteSpace=wrap;html=1;size=14;verticalAlign=top;align=left;spacingTop=-6;" vertex="1" parent="dFnY3A74wQprLPWWGfIj-1">
                    <mxGeometry x="1020" y="930" width="110" height="60" as="geometry"/>
                </mxCell>
                <mxCell id="dFnY3A74wQprLPWWGfIj-16" value="" style="endArrow=none;dashed=1;html=1;dashPattern=1 3;strokeWidth=2;entryX=1;entryY=0.5;entryDx=0;entryDy=0;exitX=0;exitY=0.5;exitDx=0;exitDy=0;exitPerimeter=0;" edge="1" parent="dFnY3A74wQprLPWWGfIj-1" source="dFnY3A74wQprLPWWGfIj-15" target="dFnY3A74wQprLPWWGfIj-14">
                    <mxGeometry width="50" height="50" relative="1" as="geometry">
                        <mxPoint x="1060" y="970" as="sourcePoint"/>
                        <mxPoint x="920" y="830" as="targetPoint"/>
                    </mxGeometry>
                </mxCell>
                <mxCell id="dFnY3A74wQprLPWWGfIj-2" value="Task" style="swimlane;fontStyle=1;align=center;verticalAlign=top;childLayout=stackLayout;horizontal=1;startSize=26;horizontalStack=0;resizeParent=1;resizeParentMax=0;resizeLast=0;collapsible=1;marginBottom=0;" vertex="1" parent="dFnY3A74wQprLPWWGfIj-1">
                    <mxGeometry x="640" y="770" width="170" height="112" as="geometry"/>
                </mxCell>
                <mxCell id="dFnY3A74wQprLPWWGfIj-3" value="+ componentType: String" style="text;strokeColor=none;fillColor=none;align=left;verticalAlign=top;spacingLeft=4;spacingRight=4;overflow=hidden;rotatable=0;points=[[0,0.5],[1,0.5]];portConstraint=eastwest;" vertex="1" parent="dFnY3A74wQprLPWWGfIj-2">
                    <mxGeometry y="26" width="170" height="26" as="geometry"/>
                </mxCell>
                <mxCell id="dFnY3A74wQprLPWWGfIj-6" value="+ operation: Operation" style="text;strokeColor=none;fillColor=none;align=left;verticalAlign=top;spacingLeft=4;spacingRight=4;overflow=hidden;rotatable=0;points=[[0,0.5],[1,0.5]];portConstraint=eastwest;" vertex="1" parent="dFnY3A74wQprLPWWGfIj-2">
                    <mxGeometry y="52" width="170" height="26" as="geometry"/>
                </mxCell>
                <mxCell id="dFnY3A74wQprLPWWGfIj-18" value="" style="line;strokeWidth=1;fillColor=none;align=left;verticalAlign=middle;spacingTop=-1;spacingLeft=3;spacingRight=3;rotatable=0;labelPosition=right;points=[];portConstraint=eastwest;" vertex="1" parent="dFnY3A74wQprLPWWGfIj-2">
                    <mxGeometry y="78" width="170" height="8" as="geometry"/>
                </mxCell>
                <mxCell id="dFnY3A74wQprLPWWGfIj-17" value="+ getReturnData(): Object" style="text;strokeColor=none;fillColor=none;align=left;verticalAlign=top;spacingLeft=4;spacingRight=4;overflow=hidden;rotatable=0;points=[[0,0.5],[1,0.5]];portConstraint=eastwest;" vertex="1" parent="dFnY3A74wQprLPWWGfIj-2">
                    <mxGeometry y="86" width="170" height="26" as="geometry"/>
                </mxCell>
                <mxCell id="dFnY3A74wQprLPWWGfIj-19" value="form, input, &lt;br&gt;card ..." style="shape=note;whiteSpace=wrap;html=1;size=14;verticalAlign=top;align=left;spacingTop=-6;" vertex="1" parent="dFnY3A74wQprLPWWGfIj-1">
                    <mxGeometry x="540" y="854" width="81" height="28" as="geometry"/>
                </mxCell>
                <mxCell id="dFnY3A74wQprLPWWGfIj-20" value="" style="endArrow=none;dashed=1;html=1;dashPattern=1 3;strokeWidth=2;entryX=0;entryY=0.5;entryDx=0;entryDy=0;" edge="1" parent="dFnY3A74wQprLPWWGfIj-1" source="dFnY3A74wQprLPWWGfIj-19" target="dFnY3A74wQprLPWWGfIj-3">
                    <mxGeometry width="50" height="50" relative="1" as="geometry">
                        <mxPoint x="1070" y="980" as="sourcePoint"/>
                        <mxPoint x="990" y="997" as="targetPoint"/>
                    </mxGeometry>
                </mxCell>
                <mxCell id="dFnY3A74wQprLPWWGfIj-21" value="PipelineStorage" style="swimlane;fontStyle=1;align=center;verticalAlign=top;childLayout=stackLayout;horizontal=1;startSize=26;horizontalStack=0;resizeParent=1;resizeParentMax=0;resizeLast=0;collapsible=1;marginBottom=0;" vertex="1" parent="dFnY3A74wQprLPWWGfIj-1">
                    <mxGeometry x="890" y="690" width="170" height="112" as="geometry"/>
                </mxCell>
                <mxCell id="dFnY3A74wQprLPWWGfIj-22" value="+ tasks: Map&lt;String,Task&gt;" style="text;strokeColor=none;fillColor=none;align=left;verticalAlign=top;spacingLeft=4;spacingRight=4;overflow=hidden;rotatable=0;points=[[0,0.5],[1,0.5]];portConstraint=eastwest;" vertex="1" parent="dFnY3A74wQprLPWWGfIj-21">
                    <mxGeometry y="26" width="170" height="26" as="geometry"/>
                </mxCell>
                <mxCell id="dFnY3A74wQprLPWWGfIj-25" value="+ operationPool: Operation[]" style="text;strokeColor=none;fillColor=none;align=left;verticalAlign=top;spacingLeft=4;spacingRight=4;overflow=hidden;rotatable=0;points=[[0,0.5],[1,0.5]];portConstraint=eastwest;" vertex="1" parent="dFnY3A74wQprLPWWGfIj-21">
                    <mxGeometry y="52" width="170" height="26" as="geometry"/>
                </mxCell>
                <mxCell id="dFnY3A74wQprLPWWGfIj-23" value="" style="line;strokeWidth=1;fillColor=none;align=left;verticalAlign=middle;spacingTop=-1;spacingLeft=3;spacingRight=3;rotatable=0;labelPosition=right;points=[];portConstraint=eastwest;" vertex="1" parent="dFnY3A74wQprLPWWGfIj-21">
                    <mxGeometry y="78" width="170" height="8" as="geometry"/>
                </mxCell>
                <mxCell id="dFnY3A74wQprLPWWGfIj-24" value="+ method(type): type" style="text;strokeColor=none;fillColor=none;align=left;verticalAlign=top;spacingLeft=4;spacingRight=4;overflow=hidden;rotatable=0;points=[[0,0.5],[1,0.5]];portConstraint=eastwest;" vertex="1" parent="dFnY3A74wQprLPWWGfIj-21">
                    <mxGeometry y="86" width="170" height="26" as="geometry"/>
                </mxCell>
                <mxCell id="dFnY3A74wQprLPWWGfIj-26" value="" style="endArrow=open;endFill=1;endSize=12;html=1;exitX=0;exitY=0.5;exitDx=0;exitDy=0;entryX=0.5;entryY=0;entryDx=0;entryDy=0;" edge="1" parent="dFnY3A74wQprLPWWGfIj-1" source="dFnY3A74wQprLPWWGfIj-22" target="dFnY3A74wQprLPWWGfIj-2">
                    <mxGeometry width="160" relative="1" as="geometry">
                        <mxPoint x="720" y="830" as="sourcePoint"/>
                        <mxPoint x="880" y="830" as="targetPoint"/>
                        <Array as="points">
                            <mxPoint x="725" y="730"/>
                        </Array>
                    </mxGeometry>
                </mxCell>
                <mxCell id="dFnY3A74wQprLPWWGfIj-27" value="" style="endArrow=open;endFill=1;endSize=12;html=1;exitX=0.482;exitY=1.026;exitDx=0;exitDy=0;entryX=0.75;entryY=0;entryDx=0;entryDy=0;exitPerimeter=0;" edge="1" parent="dFnY3A74wQprLPWWGfIj-1" source="dFnY3A74wQprLPWWGfIj-24" target="dFnY3A74wQprLPWWGfIj-7">
                    <mxGeometry width="160" relative="1" as="geometry">
                        <mxPoint x="760" y="820" as="sourcePoint"/>
                        <mxPoint x="920" y="820" as="targetPoint"/>
                        <Array as="points">
                            <mxPoint x="972" y="840"/>
                            <mxPoint x="940" y="840"/>
                        </Array>
                    </mxGeometry>
                </mxCell>
                <mxCell id="dFnY3A74wQprLPWWGfIj-29" value="&lt;font style=&quot;font-size: 22px&quot;&gt;&lt;b&gt;Store&lt;/b&gt;&lt;/font&gt;" style="rounded=0;whiteSpace=wrap;html=1;" vertex="1" parent="dFnY3A74wQprLPWWGfIj-1">
                    <mxGeometry x="1405" y="610" width="120" height="60" as="geometry"/>
                </mxCell>
                <mxCell id="dFnY3A74wQprLPWWGfIj-30" value="PipelineStorage" style="swimlane;fontStyle=1;align=center;verticalAlign=top;childLayout=stackLayout;horizontal=1;startSize=26;horizontalStack=0;resizeParent=1;resizeParentMax=0;resizeLast=0;collapsible=1;marginBottom=0;" vertex="1" parent="dFnY3A74wQprLPWWGfIj-1">
                    <mxGeometry x="1190" y="742" width="170" height="112" as="geometry"/>
                </mxCell>
                <mxCell id="dFnY3A74wQprLPWWGfIj-31" value="+ tasks: Map&lt;String,Task&gt;" style="text;strokeColor=none;fillColor=none;align=left;verticalAlign=top;spacingLeft=4;spacingRight=4;overflow=hidden;rotatable=0;points=[[0,0.5],[1,0.5]];portConstraint=eastwest;" vertex="1" parent="dFnY3A74wQprLPWWGfIj-30">
                    <mxGeometry y="26" width="170" height="26" as="geometry"/>
                </mxCell>
                <mxCell id="dFnY3A74wQprLPWWGfIj-32" value="+ operationPool: Operation[]" style="text;strokeColor=none;fillColor=none;align=left;verticalAlign=top;spacingLeft=4;spacingRight=4;overflow=hidden;rotatable=0;points=[[0,0.5],[1,0.5]];portConstraint=eastwest;" vertex="1" parent="dFnY3A74wQprLPWWGfIj-30">
                    <mxGeometry y="52" width="170" height="26" as="geometry"/>
                </mxCell>
                <mxCell id="dFnY3A74wQprLPWWGfIj-33" value="" style="line;strokeWidth=1;fillColor=none;align=left;verticalAlign=middle;spacingTop=-1;spacingLeft=3;spacingRight=3;rotatable=0;labelPosition=right;points=[];portConstraint=eastwest;" vertex="1" parent="dFnY3A74wQprLPWWGfIj-30">
                    <mxGeometry y="78" width="170" height="8" as="geometry"/>
                </mxCell>
                <mxCell id="dFnY3A74wQprLPWWGfIj-34" value="+ method(type): type" style="text;strokeColor=none;fillColor=none;align=left;verticalAlign=top;spacingLeft=4;spacingRight=4;overflow=hidden;rotatable=0;points=[[0,0.5],[1,0.5]];portConstraint=eastwest;" vertex="1" parent="dFnY3A74wQprLPWWGfIj-30">
                    <mxGeometry y="86" width="170" height="26" as="geometry"/>
                </mxCell>
                <mxCell id="oswqsz2IdLKmLyrdoqJq-0" value="PageUICDL" style="swimlane;fontStyle=1;align=center;verticalAlign=top;childLayout=stackLayout;horizontal=1;startSize=26;horizontalStack=0;resizeParent=1;resizeParentMax=0;resizeLast=0;collapsible=1;marginBottom=0;" vertex="1" parent="dFnY3A74wQprLPWWGfIj-1">
                    <mxGeometry x="1380" y="742" width="170" height="268" as="geometry"/>
                </mxCell>
                <mxCell id="oswqsz2IdLKmLyrdoqJq-1" value="+ id: String" style="text;strokeColor=none;fillColor=none;align=left;verticalAlign=top;spacingLeft=4;spacingRight=4;overflow=hidden;rotatable=0;points=[[0,0.5],[1,0.5]];portConstraint=eastwest;" vertex="1" parent="oswqsz2IdLKmLyrdoqJq-0">
                    <mxGeometry y="26" width="170" height="26" as="geometry"/>
                </mxCell>
                <mxCell id="oswqsz2IdLKmLyrdoqJq-2" value="+ selector: String" style="text;strokeColor=none;fillColor=none;align=left;verticalAlign=top;spacingLeft=4;spacingRight=4;overflow=hidden;rotatable=0;points=[[0,0.5],[1,0.5]];portConstraint=eastwest;" vertex="1" parent="oswqsz2IdLKmLyrdoqJq-0">
                    <mxGeometry y="52" width="170" height="26" as="geometry"/>
                </mxCell>
                <mxCell id="oswqsz2IdLKmLyrdoqJq-3" value="+ category: String" style="text;strokeColor=none;fillColor=none;align=left;verticalAlign=top;spacingLeft=4;spacingRight=4;overflow=hidden;rotatable=0;points=[[0,0.5],[1,0.5]];portConstraint=eastwest;" vertex="1" parent="oswqsz2IdLKmLyrdoqJq-0">
                    <mxGeometry y="78" width="170" height="26" as="geometry"/>
                </mxCell>
                <mxCell id="oswqsz2IdLKmLyrdoqJq-4" value="+ style: Map&lt;String,String&gt;" style="text;strokeColor=none;fillColor=none;align=left;verticalAlign=top;spacingLeft=4;spacingRight=4;overflow=hidden;rotatable=0;points=[[0,0.5],[1,0.5]];portConstraint=eastwest;" vertex="1" parent="oswqsz2IdLKmLyrdoqJq-0">
                    <mxGeometry y="104" width="170" height="26" as="geometry"/>
                </mxCell>
                <mxCell id="oswqsz2IdLKmLyrdoqJq-5" value="+ body: LayoutComponent" style="text;strokeColor=none;fillColor=none;align=left;verticalAlign=top;spacingLeft=4;spacingRight=4;overflow=hidden;rotatable=0;points=[[0,0.5],[1,0.5]];portConstraint=eastwest;" vertex="1" parent="oswqsz2IdLKmLyrdoqJq-0">
                    <mxGeometry y="130" width="170" height="26" as="geometry"/>
                </mxCell>
                <mxCell id="oswqsz2IdLKmLyrdoqJq-6" value="+ header: LayoutComponent" style="text;strokeColor=none;fillColor=none;align=left;verticalAlign=top;spacingLeft=4;spacingRight=4;overflow=hidden;rotatable=0;points=[[0,0.5],[1,0.5]];portConstraint=eastwest;" vertex="1" parent="oswqsz2IdLKmLyrdoqJq-0">
                    <mxGeometry y="156" width="170" height="26" as="geometry"/>
                </mxCell>
                <mxCell id="oswqsz2IdLKmLyrdoqJq-7" value="+ sidebar: LayoutComponent" style="text;strokeColor=none;fillColor=none;align=left;verticalAlign=top;spacingLeft=4;spacingRight=4;overflow=hidden;rotatable=0;points=[[0,0.5],[1,0.5]];portConstraint=eastwest;" vertex="1" parent="oswqsz2IdLKmLyrdoqJq-0">
                    <mxGeometry y="182" width="170" height="26" as="geometry"/>
                </mxCell>
                <mxCell id="oswqsz2IdLKmLyrdoqJq-8" value="+ asidbar: LayoutComponent" style="text;strokeColor=none;fillColor=none;align=left;verticalAlign=top;spacingLeft=4;spacingRight=4;overflow=hidden;rotatable=0;points=[[0,0.5],[1,0.5]];portConstraint=eastwest;" vertex="1" parent="oswqsz2IdLKmLyrdoqJq-0">
                    <mxGeometry y="208" width="170" height="26" as="geometry"/>
                </mxCell>
                <mxCell id="oswqsz2IdLKmLyrdoqJq-9" value="+ footer: LayoutComponent" style="text;strokeColor=none;fillColor=none;align=left;verticalAlign=top;spacingLeft=4;spacingRight=4;overflow=hidden;rotatable=0;points=[[0,0.5],[1,0.5]];portConstraint=eastwest;" vertex="1" parent="oswqsz2IdLKmLyrdoqJq-0">
                    <mxGeometry y="234" width="170" height="26" as="geometry"/>
                </mxCell>
                <mxCell id="oswqsz2IdLKmLyrdoqJq-10" value="" style="line;strokeWidth=1;fillColor=none;align=left;verticalAlign=middle;spacingTop=-1;spacingLeft=3;spacingRight=3;rotatable=0;labelPosition=right;points=[];portConstraint=eastwest;" vertex="1" parent="oswqsz2IdLKmLyrdoqJq-0">
                    <mxGeometry y="260" width="170" height="8" as="geometry"/>
                </mxCell>
                <mxCell id="VJ37WGlB0gGwLEApV15N-0" value="GraphStorage" style="swimlane;fontStyle=1;align=center;verticalAlign=top;childLayout=stackLayout;horizontal=1;startSize=26;horizontalStack=0;resizeParent=1;resizeParentMax=0;resizeLast=0;collapsible=1;marginBottom=0;" vertex="1" parent="dFnY3A74wQprLPWWGfIj-1">
                    <mxGeometry x="1580" y="742" width="320" height="476" as="geometry"/>
                </mxCell>
                <mxCell id="VJ37WGlB0gGwLEApV15N-1" value="+ vertexStorages: Map&lt;String,VetexStorage&gt;" style="text;strokeColor=none;fillColor=none;align=left;verticalAlign=top;spacingLeft=4;spacingRight=4;overflow=hidden;rotatable=0;points=[[0,0.5],[1,0.5]];portConstraint=eastwest;" vertex="1" parent="VJ37WGlB0gGwLEApV15N-0">
                    <mxGeometry y="26" width="320" height="26" as="geometry"/>
                </mxCell>
                <mxCell id="VJ37WGlB0gGwLEApV15N-2" value="+ edgeStorages: Map&lt;String,EdgeStorage&gt;" style="text;strokeColor=none;fillColor=none;align=left;verticalAlign=top;spacingLeft=4;spacingRight=4;overflow=hidden;rotatable=0;points=[[0,0.5],[1,0.5]];portConstraint=eastwest;" vertex="1" parent="VJ37WGlB0gGwLEApV15N-0">
                    <mxGeometry y="52" width="320" height="26" as="geometry"/>
                </mxCell>
                <mxCell id="VJ37WGlB0gGwLEApV15N-3" value="+ editor: mxEditor" style="text;strokeColor=none;fillColor=none;align=left;verticalAlign=top;spacingLeft=4;spacingRight=4;overflow=hidden;rotatable=0;points=[[0,0.5],[1,0.5]];portConstraint=eastwest;" vertex="1" parent="VJ37WGlB0gGwLEApV15N-0">
                    <mxGeometry y="78" width="320" height="26" as="geometry"/>
                </mxCell>
                <mxCell id="VJ37WGlB0gGwLEApV15N-4" value="+ id: String" style="text;strokeColor=none;fillColor=none;align=left;verticalAlign=top;spacingLeft=4;spacingRight=4;overflow=hidden;rotatable=0;points=[[0,0.5],[1,0.5]];portConstraint=eastwest;" vertex="1" parent="VJ37WGlB0gGwLEApV15N-0">
                    <mxGeometry y="104" width="320" height="26" as="geometry"/>
                </mxCell>
                <mxCell id="VJ37WGlB0gGwLEApV15N-5" value="+ createComponentStrategy: ICreateComponentStrategy" style="text;strokeColor=none;fillColor=none;align=left;verticalAlign=top;spacingLeft=4;spacingRight=4;overflow=hidden;rotatable=0;points=[[0,0.5],[1,0.5]];portConstraint=eastwest;" vertex="1" parent="VJ37WGlB0gGwLEApV15N-0">
                    <mxGeometry y="130" width="320" height="26" as="geometry"/>
                </mxCell>
                <mxCell id="VJ37WGlB0gGwLEApV15N-6" value="" style="line;strokeWidth=1;fillColor=none;align=left;verticalAlign=middle;spacingTop=-1;spacingLeft=3;spacingRight=3;rotatable=0;labelPosition=right;points=[];portConstraint=eastwest;" vertex="1" parent="VJ37WGlB0gGwLEApV15N-0">
                    <mxGeometry y="156" width="320" height="8" as="geometry"/>
                </mxCell>
                <mxCell id="VJ37WGlB0gGwLEApV15N-7" value="+ initializeEditor(element,configurationFilePath)" style="text;strokeColor=none;fillColor=none;align=left;verticalAlign=top;spacingLeft=4;spacingRight=4;overflow=hidden;rotatable=0;points=[[0,0.5],[1,0.5]];portConstraint=eastwest;" vertex="1" parent="VJ37WGlB0gGwLEApV15N-0">
                    <mxGeometry y="164" width="320" height="26" as="geometry"/>
                </mxCell>
                <mxCell id="VJ37WGlB0gGwLEApV15N-8" value="+ syncComponentsStyle()" style="text;strokeColor=none;fillColor=none;align=left;verticalAlign=top;spacingLeft=4;spacingRight=4;overflow=hidden;rotatable=0;points=[[0,0.5],[1,0.5]];portConstraint=eastwest;" vertex="1" parent="VJ37WGlB0gGwLEApV15N-0">
                    <mxGeometry y="190" width="320" height="26" as="geometry"/>
                </mxCell>
                <mxCell id="VJ37WGlB0gGwLEApV15N-9" value="+ syncComponentsProperty()" style="text;strokeColor=none;fillColor=none;align=left;verticalAlign=top;spacingLeft=4;spacingRight=4;overflow=hidden;rotatable=0;points=[[0,0.5],[1,0.5]];portConstraint=eastwest;" vertex="1" parent="VJ37WGlB0gGwLEApV15N-0">
                    <mxGeometry y="216" width="320" height="26" as="geometry"/>
                </mxCell>
                <mxCell id="VJ37WGlB0gGwLEApV15N-10" value="+ createComponent(uiComponent, parent,x?,y?)" style="text;strokeColor=none;fillColor=none;align=left;verticalAlign=top;spacingLeft=4;spacingRight=4;overflow=hidden;rotatable=0;points=[[0,0.5],[1,0.5]];portConstraint=eastwest;" vertex="1" parent="VJ37WGlB0gGwLEApV15N-0">
                    <mxGeometry y="242" width="320" height="26" as="geometry"/>
                </mxCell>
                <mxCell id="VJ37WGlB0gGwLEApV15N-11" value="+ setStrategy(strategy:ICreateComponentStrategy)" style="text;strokeColor=none;fillColor=none;align=left;verticalAlign=top;spacingLeft=4;spacingRight=4;overflow=hidden;rotatable=0;points=[[0,0.5],[1,0.5]];portConstraint=eastwest;" vertex="1" parent="VJ37WGlB0gGwLEApV15N-0">
                    <mxGeometry y="268" width="320" height="26" as="geometry"/>
                </mxCell>
                <mxCell id="VJ37WGlB0gGwLEApV15N-12" value="+ insertVertex(vertexStorage:VertexStorage)" style="text;strokeColor=none;fillColor=none;align=left;verticalAlign=top;spacingLeft=4;spacingRight=4;overflow=hidden;rotatable=0;points=[[0,0.5],[1,0.5]];portConstraint=eastwest;" vertex="1" parent="VJ37WGlB0gGwLEApV15N-0">
                    <mxGeometry y="294" width="320" height="26" as="geometry"/>
                </mxCell>
                <mxCell id="VJ37WGlB0gGwLEApV15N-13" value="+ setStrategy(strategy:ICreateComponentStrategy)" style="text;strokeColor=none;fillColor=none;align=left;verticalAlign=top;spacingLeft=4;spacingRight=4;overflow=hidden;rotatable=0;points=[[0,0.5],[1,0.5]];portConstraint=eastwest;" vertex="1" parent="VJ37WGlB0gGwLEApV15N-0">
                    <mxGeometry y="320" width="320" height="26" as="geometry"/>
                </mxCell>
                <mxCell id="VJ37WGlB0gGwLEApV15N-14" value="+ getGraph()" style="text;strokeColor=none;fillColor=none;align=left;verticalAlign=top;spacingLeft=4;spacingRight=4;overflow=hidden;rotatable=0;points=[[0,0.5],[1,0.5]];portConstraint=eastwest;" vertex="1" parent="VJ37WGlB0gGwLEApV15N-0">
                    <mxGeometry y="346" width="320" height="26" as="geometry"/>
                </mxCell>
                <mxCell id="VJ37WGlB0gGwLEApV15N-15" value="+ getGraphModel()" style="text;strokeColor=none;fillColor=none;align=left;verticalAlign=top;spacingLeft=4;spacingRight=4;overflow=hidden;rotatable=0;points=[[0,0.5],[1,0.5]];portConstraint=eastwest;" vertex="1" parent="VJ37WGlB0gGwLEApV15N-0">
                    <mxGeometry y="372" width="320" height="26" as="geometry"/>
                </mxCell>
                <mxCell id="VJ37WGlB0gGwLEApV15N-16" value="+ getModified(): Boolean" style="text;strokeColor=none;fillColor=none;align=left;verticalAlign=top;spacingLeft=4;spacingRight=4;overflow=hidden;rotatable=0;points=[[0,0.5],[1,0.5]];portConstraint=eastwest;" vertex="1" parent="VJ37WGlB0gGwLEApV15N-0">
                    <mxGeometry y="398" width="320" height="26" as="geometry"/>
                </mxCell>
                <mxCell id="VJ37WGlB0gGwLEApV15N-17" value="+ setModified(modified:Boolean)" style="text;strokeColor=none;fillColor=none;align=left;verticalAlign=top;spacingLeft=4;spacingRight=4;overflow=hidden;rotatable=0;points=[[0,0.5],[1,0.5]];portConstraint=eastwest;" vertex="1" parent="VJ37WGlB0gGwLEApV15N-0">
                    <mxGeometry y="424" width="320" height="26" as="geometry"/>
                </mxCell>
                <mxCell id="VJ37WGlB0gGwLEApV15N-18" value="+ findVertexStorageByVertexID(id:String): VertexStorage" style="text;strokeColor=none;fillColor=none;align=left;verticalAlign=top;spacingLeft=4;spacingRight=4;overflow=hidden;rotatable=0;points=[[0,0.5],[1,0.5]];portConstraint=eastwest;" vertex="1" parent="VJ37WGlB0gGwLEApV15N-0">
                    <mxGeometry y="450" width="320" height="26" as="geometry"/>
                </mxCell>
                <mxCell id="VJ37WGlB0gGwLEApV15N-19" value="" style="endArrow=classic;html=1;exitX=0.5;exitY=1;exitDx=0;exitDy=0;entryX=0.5;entryY=0;entryDx=0;entryDy=0;" edge="1" parent="dFnY3A74wQprLPWWGfIj-1" source="dFnY3A74wQprLPWWGfIj-29" target="dFnY3A74wQprLPWWGfIj-30">
                    <mxGeometry width="50" height="50" relative="1" as="geometry">
                        <mxPoint x="1370" y="740" as="sourcePoint"/>
                        <mxPoint x="1420" y="690" as="targetPoint"/>
                    </mxGeometry>
                </mxCell>
                <mxCell id="VJ37WGlB0gGwLEApV15N-20" value="" style="endArrow=classic;html=1;exitX=0.5;exitY=1;exitDx=0;exitDy=0;" edge="1" parent="dFnY3A74wQprLPWWGfIj-1" source="dFnY3A74wQprLPWWGfIj-29" target="oswqsz2IdLKmLyrdoqJq-0">
                    <mxGeometry width="50" height="50" relative="1" as="geometry">
                        <mxPoint x="1475" y="680" as="sourcePoint"/>
                        <mxPoint x="1285" y="752" as="targetPoint"/>
                    </mxGeometry>
                </mxCell>
                <mxCell id="VJ37WGlB0gGwLEApV15N-21" value="" style="endArrow=classic;html=1;exitX=0.5;exitY=1;exitDx=0;exitDy=0;entryX=0.5;entryY=0;entryDx=0;entryDy=0;" edge="1" parent="dFnY3A74wQprLPWWGfIj-1" source="dFnY3A74wQprLPWWGfIj-29" target="VJ37WGlB0gGwLEApV15N-0">
                    <mxGeometry width="50" height="50" relative="1" as="geometry">
                        <mxPoint x="1475" y="680" as="sourcePoint"/>
                        <mxPoint x="1475" y="752" as="targetPoint"/>
                    </mxGeometry>
                </mxCell>
            </root>
        </mxGraphModel>
    </diagram>
    <diagram id="367MfOPzcPoTQk0w8PoQ" name="Reducer Design">
        <mxGraphModel dx="4309" dy="555" grid="1" gridSize="10" guides="1" tooltips="1" connect="1" arrows="1" fold="1" page="1" pageScale="1" pageWidth="3300" pageHeight="4681" math="0" shadow="0">
            <root>
                <mxCell id="fTVoGcnKfKUIWMrtiG_N-0"/>
                <mxCell id="fTVoGcnKfKUIWMrtiG_N-1" parent="fTVoGcnKfKUIWMrtiG_N-0"/>
                <mxCell id="fTVoGcnKfKUIWMrtiG_N-2" value="" style="rounded=0;whiteSpace=wrap;html=1;" vertex="1" parent="fTVoGcnKfKUIWMrtiG_N-1">
                    <mxGeometry x="-360" y="70" width="1590" height="730" as="geometry"/>
                </mxCell>
                <mxCell id="fTVoGcnKfKUIWMrtiG_N-3" value="&lt;font style=&quot;font-size: 14px&quot;&gt;&lt;b&gt;Action&lt;/b&gt;&lt;/font&gt;" style="rounded=0;whiteSpace=wrap;html=1;" vertex="1" parent="fTVoGcnKfKUIWMrtiG_N-1">
                    <mxGeometry x="510" y="80" width="120" height="60" as="geometry"/>
                </mxCell>
                <mxCell id="fTVoGcnKfKUIWMrtiG_N-4" value="&lt;font style=&quot;font-size: 14px&quot;&gt;&lt;b&gt;Dispatcher&lt;/b&gt;&lt;/font&gt;" style="rounded=0;whiteSpace=wrap;html=1;" vertex="1" parent="fTVoGcnKfKUIWMrtiG_N-1">
                    <mxGeometry x="510" y="170" width="120" height="60" as="geometry"/>
                </mxCell>
                <mxCell id="fTVoGcnKfKUIWMrtiG_N-5" value="&lt;font style=&quot;font-size: 14px&quot;&gt;&lt;b&gt;InternalRepresentation&lt;br&gt;Reducer&lt;/b&gt;&lt;/font&gt;" style="rounded=0;whiteSpace=wrap;html=1;" vertex="1" parent="fTVoGcnKfKUIWMrtiG_N-1">
                    <mxGeometry y="330" width="160" height="60" as="geometry"/>
                </mxCell>
                <mxCell id="fTVoGcnKfKUIWMrtiG_N-6" value="&lt;font style=&quot;font-size: 14px&quot;&gt;&lt;b&gt;PipelineTask&lt;br&gt;Reducer&lt;/b&gt;&lt;/font&gt;" style="rounded=0;whiteSpace=wrap;html=1;" vertex="1" parent="fTVoGcnKfKUIWMrtiG_N-1">
                    <mxGeometry x="870" y="320" width="120" height="60" as="geometry"/>
                </mxCell>
                <mxCell id="fTVoGcnKfKUIWMrtiG_N-7" value="&lt;font style=&quot;font-size: 14px&quot;&gt;&lt;b&gt;ExternalRepresentation&lt;br&gt;Reducer&lt;/b&gt;&lt;/font&gt;" style="rounded=0;whiteSpace=wrap;html=1;" vertex="1" parent="fTVoGcnKfKUIWMrtiG_N-1">
                    <mxGeometry x="490" y="320" width="180" height="60" as="geometry"/>
                </mxCell>
                <mxCell id="fTVoGcnKfKUIWMrtiG_N-8" value="" style="endArrow=classic;html=1;exitX=0.5;exitY=1;exitDx=0;exitDy=0;" edge="1" parent="fTVoGcnKfKUIWMrtiG_N-1" source="fTVoGcnKfKUIWMrtiG_N-3" target="fTVoGcnKfKUIWMrtiG_N-4">
                    <mxGeometry width="50" height="50" relative="1" as="geometry">
                        <mxPoint x="590" y="420" as="sourcePoint"/>
                        <mxPoint x="640" y="370" as="targetPoint"/>
                    </mxGeometry>
                </mxCell>
                <mxCell id="fTVoGcnKfKUIWMrtiG_N-9" value="" style="endArrow=classic;html=1;exitX=0.5;exitY=1;exitDx=0;exitDy=0;entryX=0.5;entryY=0;entryDx=0;entryDy=0;" edge="1" parent="fTVoGcnKfKUIWMrtiG_N-1" source="fTVoGcnKfKUIWMrtiG_N-4" target="fTVoGcnKfKUIWMrtiG_N-5">
                    <mxGeometry width="50" height="50" relative="1" as="geometry">
                        <mxPoint x="590" y="220" as="sourcePoint"/>
                        <mxPoint x="640" y="170" as="targetPoint"/>
                    </mxGeometry>
                </mxCell>
                <mxCell id="fTVoGcnKfKUIWMrtiG_N-10" value="" style="endArrow=classic;html=1;exitX=0.5;exitY=1;exitDx=0;exitDy=0;entryX=0.5;entryY=0;entryDx=0;entryDy=0;" edge="1" parent="fTVoGcnKfKUIWMrtiG_N-1" source="fTVoGcnKfKUIWMrtiG_N-4" target="fTVoGcnKfKUIWMrtiG_N-7">
                    <mxGeometry width="50" height="50" relative="1" as="geometry">
                        <mxPoint x="580" y="280" as="sourcePoint"/>
                        <mxPoint x="370" y="320" as="targetPoint"/>
                    </mxGeometry>
                </mxCell>
                <mxCell id="fTVoGcnKfKUIWMrtiG_N-11" value="" style="endArrow=classic;html=1;exitX=0.5;exitY=1;exitDx=0;exitDy=0;entryX=0.5;entryY=0;entryDx=0;entryDy=0;" edge="1" parent="fTVoGcnKfKUIWMrtiG_N-1" source="fTVoGcnKfKUIWMrtiG_N-4" target="fTVoGcnKfKUIWMrtiG_N-6">
                    <mxGeometry width="50" height="50" relative="1" as="geometry">
                        <mxPoint x="590" y="290" as="sourcePoint"/>
                        <mxPoint x="380" y="330" as="targetPoint"/>
                    </mxGeometry>
                </mxCell>
                <mxCell id="fTVoGcnKfKUIWMrtiG_N-12" value="Read&lt;br&gt;Reducer" style="rounded=0;whiteSpace=wrap;html=1;" vertex="1" parent="fTVoGcnKfKUIWMrtiG_N-1">
                    <mxGeometry x="-70" y="470" width="120" height="60" as="geometry"/>
                </mxCell>
                <mxCell id="fTVoGcnKfKUIWMrtiG_N-13" value="Create&lt;br&gt;Reducer" style="rounded=0;whiteSpace=wrap;html=1;" vertex="1" parent="fTVoGcnKfKUIWMrtiG_N-1">
                    <mxGeometry x="320" y="470" width="120" height="60" as="geometry"/>
                </mxCell>
                <mxCell id="fTVoGcnKfKUIWMrtiG_N-14" value="Create&lt;br&gt;Reducer" style="rounded=0;whiteSpace=wrap;html=1;" vertex="1" parent="fTVoGcnKfKUIWMrtiG_N-1">
                    <mxGeometry x="-200" y="470" width="120" height="60" as="geometry"/>
                </mxCell>
                <mxCell id="fTVoGcnKfKUIWMrtiG_N-15" value="Delete&lt;br&gt;Reducer" style="rounded=0;whiteSpace=wrap;html=1;" vertex="1" parent="fTVoGcnKfKUIWMrtiG_N-1">
                    <mxGeometry x="190" y="470" width="120" height="60" as="geometry"/>
                </mxCell>
                <mxCell id="fTVoGcnKfKUIWMrtiG_N-16" value="Update&lt;br&gt;Reducer" style="rounded=0;whiteSpace=wrap;html=1;" vertex="1" parent="fTVoGcnKfKUIWMrtiG_N-1">
                    <mxGeometry x="60" y="470" width="120" height="60" as="geometry"/>
                </mxCell>
                <mxCell id="fTVoGcnKfKUIWMrtiG_N-17" value="Read&lt;br&gt;Reducer" style="rounded=0;whiteSpace=wrap;html=1;" vertex="1" parent="fTVoGcnKfKUIWMrtiG_N-1">
                    <mxGeometry x="450" y="470" width="120" height="60" as="geometry"/>
                </mxCell>
                <mxCell id="fTVoGcnKfKUIWMrtiG_N-18" value="Delete&lt;br&gt;Reducer" style="rounded=0;whiteSpace=wrap;html=1;" vertex="1" parent="fTVoGcnKfKUIWMrtiG_N-1">
                    <mxGeometry x="580" y="470" width="120" height="60" as="geometry"/>
                </mxCell>
                <mxCell id="fTVoGcnKfKUIWMrtiG_N-19" value="Create&lt;br&gt;Reducer" style="rounded=0;whiteSpace=wrap;html=1;" vertex="1" parent="fTVoGcnKfKUIWMrtiG_N-1">
                    <mxGeometry x="840" y="470" width="120" height="60" as="geometry"/>
                </mxCell>
                <mxCell id="fTVoGcnKfKUIWMrtiG_N-20" value="Sync&lt;br&gt;Reducer" style="rounded=0;whiteSpace=wrap;html=1;" vertex="1" parent="fTVoGcnKfKUIWMrtiG_N-1">
                    <mxGeometry x="710" y="470" width="120" height="60" as="geometry"/>
                </mxCell>
                <mxCell id="fTVoGcnKfKUIWMrtiG_N-21" value="Initialization&lt;br&gt;Reducer" style="rounded=0;whiteSpace=wrap;html=1;" vertex="1" parent="fTVoGcnKfKUIWMrtiG_N-1">
                    <mxGeometry x="-330" y="470" width="120" height="60" as="geometry"/>
                </mxCell>
                <mxCell id="fTVoGcnKfKUIWMrtiG_N-22" value="" style="endArrow=classic;html=1;entryX=0.5;entryY=0;entryDx=0;entryDy=0;" edge="1" parent="fTVoGcnKfKUIWMrtiG_N-1" target="fTVoGcnKfKUIWMrtiG_N-15">
                    <mxGeometry width="50" height="50" relative="1" as="geometry">
                        <mxPoint x="80" y="390" as="sourcePoint"/>
                        <mxPoint x="270" y="360" as="targetPoint"/>
                    </mxGeometry>
                </mxCell>
                <mxCell id="fTVoGcnKfKUIWMrtiG_N-23" value="" style="endArrow=classic;html=1;entryX=0.5;entryY=0;entryDx=0;entryDy=0;" edge="1" parent="fTVoGcnKfKUIWMrtiG_N-1" target="fTVoGcnKfKUIWMrtiG_N-16">
                    <mxGeometry width="50" height="50" relative="1" as="geometry">
                        <mxPoint x="80" y="390" as="sourcePoint"/>
                        <mxPoint x="160" y="370" as="targetPoint"/>
                    </mxGeometry>
                </mxCell>
                <mxCell id="fTVoGcnKfKUIWMrtiG_N-24" value="" style="endArrow=classic;html=1;entryX=0.5;entryY=0;entryDx=0;entryDy=0;" edge="1" parent="fTVoGcnKfKUIWMrtiG_N-1" target="fTVoGcnKfKUIWMrtiG_N-12">
                    <mxGeometry width="50" height="50" relative="1" as="geometry">
                        <mxPoint x="80" y="390" as="sourcePoint"/>
                        <mxPoint x="160" y="370" as="targetPoint"/>
                    </mxGeometry>
                </mxCell>
                <mxCell id="fTVoGcnKfKUIWMrtiG_N-25" value="" style="endArrow=classic;html=1;entryX=0.5;entryY=0;entryDx=0;entryDy=0;" edge="1" parent="fTVoGcnKfKUIWMrtiG_N-1" target="fTVoGcnKfKUIWMrtiG_N-14">
                    <mxGeometry width="50" height="50" relative="1" as="geometry">
                        <mxPoint x="80" y="390" as="sourcePoint"/>
                        <mxPoint x="160" y="370" as="targetPoint"/>
                    </mxGeometry>
                </mxCell>
                <mxCell id="fTVoGcnKfKUIWMrtiG_N-26" value="" style="endArrow=classic;html=1;exitX=0.5;exitY=1;exitDx=0;exitDy=0;entryX=0.5;entryY=0;entryDx=0;entryDy=0;" edge="1" parent="fTVoGcnKfKUIWMrtiG_N-1" source="fTVoGcnKfKUIWMrtiG_N-5" target="fTVoGcnKfKUIWMrtiG_N-21">
                    <mxGeometry width="50" height="50" relative="1" as="geometry">
                        <mxPoint x="110" y="420" as="sourcePoint"/>
                        <mxPoint x="160" y="370" as="targetPoint"/>
                    </mxGeometry>
                </mxCell>
                <mxCell id="fTVoGcnKfKUIWMrtiG_N-27" value="Delete&lt;br&gt;Reducer" style="rounded=0;whiteSpace=wrap;html=1;" vertex="1" parent="fTVoGcnKfKUIWMrtiG_N-1">
                    <mxGeometry x="1100" y="470" width="120" height="60" as="geometry"/>
                </mxCell>
                <mxCell id="fTVoGcnKfKUIWMrtiG_N-28" value="Read&lt;br&gt;Reducer" style="rounded=0;whiteSpace=wrap;html=1;" vertex="1" parent="fTVoGcnKfKUIWMrtiG_N-1">
                    <mxGeometry x="970" y="470" width="120" height="60" as="geometry"/>
                </mxCell>
                <mxCell id="fTVoGcnKfKUIWMrtiG_N-30" value="" style="endArrow=classic;html=1;entryX=0.5;entryY=0;entryDx=0;entryDy=0;" edge="1" parent="fTVoGcnKfKUIWMrtiG_N-1" target="fTVoGcnKfKUIWMrtiG_N-18">
                    <mxGeometry width="50" height="50" relative="1" as="geometry">
                        <mxPoint x="580" y="380" as="sourcePoint"/>
                        <mxPoint x="260" y="480" as="targetPoint"/>
                    </mxGeometry>
                </mxCell>
                <mxCell id="fTVoGcnKfKUIWMrtiG_N-31" value="" style="endArrow=classic;html=1;entryX=0.5;entryY=0;entryDx=0;entryDy=0;exitX=0.5;exitY=1;exitDx=0;exitDy=0;" edge="1" parent="fTVoGcnKfKUIWMrtiG_N-1" source="fTVoGcnKfKUIWMrtiG_N-7" target="fTVoGcnKfKUIWMrtiG_N-17">
                    <mxGeometry width="50" height="50" relative="1" as="geometry">
                        <mxPoint x="100" y="410" as="sourcePoint"/>
                        <mxPoint x="270" y="490" as="targetPoint"/>
                    </mxGeometry>
                </mxCell>
                <mxCell id="fTVoGcnKfKUIWMrtiG_N-32" value="" style="endArrow=classic;html=1;entryX=0.5;entryY=0;entryDx=0;entryDy=0;exitX=0.5;exitY=1;exitDx=0;exitDy=0;" edge="1" parent="fTVoGcnKfKUIWMrtiG_N-1" source="fTVoGcnKfKUIWMrtiG_N-7" target="fTVoGcnKfKUIWMrtiG_N-13">
                    <mxGeometry width="50" height="50" relative="1" as="geometry">
                        <mxPoint x="110" y="420" as="sourcePoint"/>
                        <mxPoint x="280" y="500" as="targetPoint"/>
                    </mxGeometry>
                </mxCell>
                <mxCell id="fTVoGcnKfKUIWMrtiG_N-33" value="" style="endArrow=classic;html=1;entryX=0.5;entryY=0;entryDx=0;entryDy=0;exitX=0.5;exitY=1;exitDx=0;exitDy=0;" edge="1" parent="fTVoGcnKfKUIWMrtiG_N-1" source="fTVoGcnKfKUIWMrtiG_N-7" target="fTVoGcnKfKUIWMrtiG_N-20">
                    <mxGeometry width="50" height="50" relative="1" as="geometry">
                        <mxPoint x="590" y="390" as="sourcePoint"/>
                        <mxPoint x="650" y="480" as="targetPoint"/>
                    </mxGeometry>
                </mxCell>
                <mxCell id="fTVoGcnKfKUIWMrtiG_N-34" value="" style="endArrow=classic;html=1;entryX=0.5;entryY=0;entryDx=0;entryDy=0;exitX=0.5;exitY=1;exitDx=0;exitDy=0;" edge="1" parent="fTVoGcnKfKUIWMrtiG_N-1" source="fTVoGcnKfKUIWMrtiG_N-6" target="fTVoGcnKfKUIWMrtiG_N-19">
                    <mxGeometry width="50" height="50" relative="1" as="geometry">
                        <mxPoint x="590" y="390" as="sourcePoint"/>
                        <mxPoint x="780" y="480" as="targetPoint"/>
                    </mxGeometry>
                </mxCell>
                <mxCell id="fTVoGcnKfKUIWMrtiG_N-35" value="" style="endArrow=classic;html=1;entryX=0.5;entryY=0;entryDx=0;entryDy=0;exitX=0.5;exitY=1;exitDx=0;exitDy=0;" edge="1" parent="fTVoGcnKfKUIWMrtiG_N-1" source="fTVoGcnKfKUIWMrtiG_N-6" target="fTVoGcnKfKUIWMrtiG_N-27">
                    <mxGeometry width="50" height="50" relative="1" as="geometry">
                        <mxPoint x="940" y="390" as="sourcePoint"/>
                        <mxPoint x="910" y="480" as="targetPoint"/>
                    </mxGeometry>
                </mxCell>
                <mxCell id="fTVoGcnKfKUIWMrtiG_N-36" value="" style="endArrow=classic;html=1;entryX=0.5;entryY=0;entryDx=0;entryDy=0;exitX=0.5;exitY=1;exitDx=0;exitDy=0;" edge="1" parent="fTVoGcnKfKUIWMrtiG_N-1" source="fTVoGcnKfKUIWMrtiG_N-6" target="fTVoGcnKfKUIWMrtiG_N-28">
                    <mxGeometry width="50" height="50" relative="1" as="geometry">
                        <mxPoint x="950" y="400" as="sourcePoint"/>
                        <mxPoint x="920" y="490" as="targetPoint"/>
                    </mxGeometry>
                </mxCell>
                <mxCell id="fTVoGcnKfKUIWMrtiG_N-38" value="&lt;font style=&quot;font-size: 22px&quot;&gt;&lt;b&gt;&lt;br&gt;Store&lt;/b&gt;&lt;/font&gt;" style="shape=cylinder2;whiteSpace=wrap;html=1;boundedLbl=1;backgroundOutline=1;size=15;" vertex="1" parent="fTVoGcnKfKUIWMrtiG_N-1">
                    <mxGeometry x="300" y="640" width="140" height="110" as="geometry"/>
                </mxCell>
                <mxCell id="fTVoGcnKfKUIWMrtiG_N-39" value="" style="endArrow=classic;html=1;exitX=0.5;exitY=1;exitDx=0;exitDy=0;entryX=0.467;entryY=0.002;entryDx=0;entryDy=0;entryPerimeter=0;" edge="1" parent="fTVoGcnKfKUIWMrtiG_N-1" source="fTVoGcnKfKUIWMrtiG_N-21" target="fTVoGcnKfKUIWMrtiG_N-38">
                    <mxGeometry width="50" height="50" relative="1" as="geometry">
                        <mxPoint x="110" y="550" as="sourcePoint"/>
                        <mxPoint x="160" y="500" as="targetPoint"/>
                    </mxGeometry>
                </mxCell>
                <mxCell id="fTVoGcnKfKUIWMrtiG_N-40" value="" style="endArrow=classic;html=1;exitX=0.5;exitY=1;exitDx=0;exitDy=0;entryX=0.449;entryY=0.002;entryDx=0;entryDy=0;entryPerimeter=0;" edge="1" parent="fTVoGcnKfKUIWMrtiG_N-1" source="fTVoGcnKfKUIWMrtiG_N-12" target="fTVoGcnKfKUIWMrtiG_N-38">
                    <mxGeometry width="50" height="50" relative="1" as="geometry">
                        <mxPoint x="-260" y="540" as="sourcePoint"/>
                        <mxPoint x="375.3800000000001" y="650.22" as="targetPoint"/>
                    </mxGeometry>
                </mxCell>
                <mxCell id="fTVoGcnKfKUIWMrtiG_N-41" value="" style="endArrow=classic;html=1;exitX=0.5;exitY=1;exitDx=0;exitDy=0;entryX=0.449;entryY=-0.006;entryDx=0;entryDy=0;entryPerimeter=0;" edge="1" parent="fTVoGcnKfKUIWMrtiG_N-1" source="fTVoGcnKfKUIWMrtiG_N-14" target="fTVoGcnKfKUIWMrtiG_N-38">
                    <mxGeometry width="50" height="50" relative="1" as="geometry">
                        <mxPoint x="-250" y="550" as="sourcePoint"/>
                        <mxPoint x="385.3800000000001" y="660.22" as="targetPoint"/>
                    </mxGeometry>
                </mxCell>
                <mxCell id="fTVoGcnKfKUIWMrtiG_N-42" value="" style="endArrow=classic;html=1;exitX=0.5;exitY=1;exitDx=0;exitDy=0;" edge="1" parent="fTVoGcnKfKUIWMrtiG_N-1" source="fTVoGcnKfKUIWMrtiG_N-16">
                    <mxGeometry width="50" height="50" relative="1" as="geometry">
                        <mxPoint x="200" y="550" as="sourcePoint"/>
                        <mxPoint x="360" y="640" as="targetPoint"/>
                    </mxGeometry>
                </mxCell>
                <mxCell id="fTVoGcnKfKUIWMrtiG_N-43" value="" style="endArrow=classic;html=1;exitX=0.5;exitY=1;exitDx=0;exitDy=0;" edge="1" parent="fTVoGcnKfKUIWMrtiG_N-1" source="fTVoGcnKfKUIWMrtiG_N-15">
                    <mxGeometry width="50" height="50" relative="1" as="geometry">
                        <mxPoint x="130" y="540" as="sourcePoint"/>
                        <mxPoint x="360" y="640" as="targetPoint"/>
                    </mxGeometry>
                </mxCell>
                <mxCell id="fTVoGcnKfKUIWMrtiG_N-44" value="" style="endArrow=classic;html=1;exitX=0.5;exitY=1;exitDx=0;exitDy=0;" edge="1" parent="fTVoGcnKfKUIWMrtiG_N-1" source="fTVoGcnKfKUIWMrtiG_N-17">
                    <mxGeometry width="50" height="50" relative="1" as="geometry">
                        <mxPoint x="260" y="540" as="sourcePoint"/>
                        <mxPoint x="360" y="640" as="targetPoint"/>
                    </mxGeometry>
                </mxCell>
                <mxCell id="fTVoGcnKfKUIWMrtiG_N-45" value="" style="endArrow=classic;html=1;exitX=0.5;exitY=1;exitDx=0;exitDy=0;" edge="1" parent="fTVoGcnKfKUIWMrtiG_N-1" source="fTVoGcnKfKUIWMrtiG_N-13">
                    <mxGeometry width="50" height="50" relative="1" as="geometry">
                        <mxPoint x="270" y="550" as="sourcePoint"/>
                        <mxPoint x="360" y="640" as="targetPoint"/>
                    </mxGeometry>
                </mxCell>
                <mxCell id="fTVoGcnKfKUIWMrtiG_N-46" value="" style="endArrow=classic;html=1;exitX=0.5;exitY=1;exitDx=0;exitDy=0;" edge="1" parent="fTVoGcnKfKUIWMrtiG_N-1" source="fTVoGcnKfKUIWMrtiG_N-18">
                    <mxGeometry width="50" height="50" relative="1" as="geometry">
                        <mxPoint x="280" y="560" as="sourcePoint"/>
                        <mxPoint x="360" y="640" as="targetPoint"/>
                    </mxGeometry>
                </mxCell>
                <mxCell id="fTVoGcnKfKUIWMrtiG_N-47" value="" style="endArrow=classic;html=1;exitX=0.5;exitY=1;exitDx=0;exitDy=0;" edge="1" parent="fTVoGcnKfKUIWMrtiG_N-1" source="fTVoGcnKfKUIWMrtiG_N-20">
                    <mxGeometry width="50" height="50" relative="1" as="geometry">
                        <mxPoint x="290" y="570" as="sourcePoint"/>
                        <mxPoint x="360" y="640" as="targetPoint"/>
                    </mxGeometry>
                </mxCell>
                <mxCell id="fTVoGcnKfKUIWMrtiG_N-48" value="" style="endArrow=classic;html=1;exitX=0.5;exitY=1;exitDx=0;exitDy=0;" edge="1" parent="fTVoGcnKfKUIWMrtiG_N-1" source="fTVoGcnKfKUIWMrtiG_N-19">
                    <mxGeometry width="50" height="50" relative="1" as="geometry">
                        <mxPoint x="780" y="540" as="sourcePoint"/>
                        <mxPoint x="360" y="640" as="targetPoint"/>
                    </mxGeometry>
                </mxCell>
                <mxCell id="fTVoGcnKfKUIWMrtiG_N-49" value="" style="endArrow=classic;html=1;exitX=0.5;exitY=1;exitDx=0;exitDy=0;entryX=0.437;entryY=0.009;entryDx=0;entryDy=0;entryPerimeter=0;" edge="1" parent="fTVoGcnKfKUIWMrtiG_N-1" source="fTVoGcnKfKUIWMrtiG_N-28" target="fTVoGcnKfKUIWMrtiG_N-38">
                    <mxGeometry width="50" height="50" relative="1" as="geometry">
                        <mxPoint x="790" y="550" as="sourcePoint"/>
                        <mxPoint x="380" y="660" as="targetPoint"/>
                    </mxGeometry>
                </mxCell>
                <mxCell id="fTVoGcnKfKUIWMrtiG_N-50" value="" style="endArrow=classic;html=1;exitX=0.5;exitY=1;exitDx=0;exitDy=0;entryX=0.443;entryY=-0.014;entryDx=0;entryDy=0;entryPerimeter=0;" edge="1" parent="fTVoGcnKfKUIWMrtiG_N-1" source="fTVoGcnKfKUIWMrtiG_N-27" target="fTVoGcnKfKUIWMrtiG_N-38">
                    <mxGeometry width="50" height="50" relative="1" as="geometry">
                        <mxPoint x="800" y="560" as="sourcePoint"/>
                        <mxPoint x="390" y="670" as="targetPoint"/>
                    </mxGeometry>
                </mxCell>
            </root>
        </mxGraphModel>
    </diagram>
</mxfile>